<?xml version="1.0" encoding="UTF-8" standalone="no"?>
<!-- Created with Inkscape (http://www.inkscape.org/) -->

<svg
   version="1.1"
   id="svg162"
   width="99.332947"
   height="74.395203"
   viewBox="0 0 99.332947 74.395203"
   sodipodi:docname="SPBrochure_06-05-2023.pdf"
   xmlns:inkscape="http://www.inkscape.org/namespaces/inkscape"
   xmlns:sodipodi="http://sodipodi.sourceforge.net/DTD/sodipodi-0.dtd"
   xmlns="http://www.w3.org/2000/svg"
   xmlns:svg="http://www.w3.org/2000/svg">
  <defs
     id="defs166">
    <clipPath
       clipPathUnits="userSpaceOnUse"
       id="clipPath1012">
      <path
         d="m 393.395,268.682 h 86.457 v 68.732 h -86.457 z"
         id="path1010" />
    </clipPath>
  </defs>
  <sodipodi:namedview
     id="namedview164"
     pagecolor="#505050"
     bordercolor="#eeeeee"
     borderopacity="1"
     inkscape:showpageshadow="0"
     inkscape:pageopacity="0"
     inkscape:pagecheckerboard="0"
     inkscape:deskcolor="#505050"
     showgrid="false" />
  <g
     id="g168"
     inkscape:groupmode="layer"
     inkscape:label="SPBrochure_06-05-2023"
     transform="matrix(1.3333333,0,0,-1.3333333,-528.48157,441.06705)">
    <g
       id="g742"
       transform="translate(403.7484,307.9054)"
       inkscape:export-filename="g742.svg"
       inkscape:export-xdpi="96"
       inkscape:export-ydpi="96">
      <path
         d="M 0,0 -0.052,0.681 -0.314,1.362 -0.681,1.938 -1.153,2.462"
         style="fill:none;stroke:#000000;stroke-width:0.21;stroke-linecap:round;stroke-linejoin:bevel;stroke-miterlimit:10;stroke-dasharray:none;stroke-opacity:1"
         id="path744" />
    </g>
    <g
       id="g746"
       transform="translate(402.6483,310.3677)">
      <path
         d="m 0,0 -6.13,5.187 v 2.41"
         style="fill:none;stroke:#000000;stroke-width:0.21;stroke-linecap:round;stroke-linejoin:round;stroke-miterlimit:10;stroke-dasharray:none;stroke-opacity:1"
         id="path748" />
    </g>
    <g
       id="g750"
       transform="translate(398.5618,321.2126)">
      <path
         d="M 0,0 -0.681,-0.419 -1.257,-0.995 -1.624,-1.676 -1.886,-2.462 -1.991,-3.248"
         style="fill:none;stroke:#000000;stroke-width:0.21;stroke-linecap:round;stroke-linejoin:bevel;stroke-miterlimit:10;stroke-dasharray:none;stroke-opacity:1"
         id="path752" />
    </g>
    <g
       id="g754"
       transform="translate(398.5094,321.265)">
      <path
         d="M 0,0 7.439,3.929 6.916,3.353"
         style="fill:none;stroke:#000000;stroke-width:0.21;stroke-linecap:round;stroke-linejoin:round;stroke-miterlimit:10;stroke-dasharray:none;stroke-opacity:1"
         id="path756" />
    </g>
    <g
       id="g758"
       transform="translate(405.425,324.5656)">
      <path
         d="m 0,0 -0.419,-0.524 -0.314,-0.629 -0.21,-0.681 -0.052,-0.681"
         style="fill:none;stroke:#000000;stroke-width:0.21;stroke-linecap:round;stroke-linejoin:bevel;stroke-miterlimit:10;stroke-dasharray:none;stroke-opacity:1"
         id="path760" />
    </g>
    <g
       id="g762"
       transform="translate(404.3771,322.0508)">
      <path
         d="M 0,0 V -38.036"
         style="fill:none;stroke:#000000;stroke-width:0.21;stroke-linecap:round;stroke-linejoin:round;stroke-miterlimit:10;stroke-dasharray:none;stroke-opacity:1"
         id="path764" />
    </g>
    <g
       id="g766"
       transform="translate(404.4295,284.0153)">
      <path
         d="M 0,0 0.105,-0.786 0.314,-1.519 0.733,-2.148 1.205,-2.724"
         style="fill:none;stroke:#000000;stroke-width:0.21;stroke-linecap:round;stroke-linejoin:bevel;stroke-miterlimit:10;stroke-dasharray:none;stroke-opacity:1"
         id="path768" />
    </g>
    <g
       id="g770"
       transform="translate(405.6345,281.2386)">
      <path
         d="M 0,0 0.419,-0.367 -7.23,3.877"
         style="fill:none;stroke:#000000;stroke-width:0.21;stroke-linecap:round;stroke-linejoin:round;stroke-miterlimit:10;stroke-dasharray:none;stroke-opacity:1"
         id="path772" />
    </g>
    <g
       id="g774"
       transform="translate(396.5186,288.3637)">
      <path
         d="M 0,0 0.105,-0.786 0.314,-1.519 0.733,-2.2 1.257,-2.777 1.886,-3.196"
         style="fill:none;stroke:#000000;stroke-width:0.21;stroke-linecap:round;stroke-linejoin:bevel;stroke-miterlimit:10;stroke-dasharray:none;stroke-opacity:1"
         id="path776" />
    </g>
    <g
       id="g778"
       transform="translate(396.4662,288.3637)">
      <path
         d="M 0,0 V 2.462 L 6.182,7.439"
         style="fill:none;stroke:#000000;stroke-width:0.21;stroke-linecap:round;stroke-linejoin:round;stroke-miterlimit:10;stroke-dasharray:none;stroke-opacity:1"
         id="path780" />
    </g>
    <g
       id="g782"
       transform="translate(402.5959,295.8032)">
      <path
         d="M 0,0 0.472,0.471 0.786,1.048 1.048,1.624 1.1,2.305"
         style="fill:none;stroke:#000000;stroke-width:0.21;stroke-linecap:round;stroke-linejoin:bevel;stroke-miterlimit:10;stroke-dasharray:none;stroke-opacity:1"
         id="path784" />
    </g>
    <g
       id="g786"
       transform="translate(403.7484,298.056)">
      <path
         d="M 0,0 0.052,9.849 M 11.421,31.906 2.777,27.4"
         style="fill:none;stroke:#000000;stroke-width:0.21;stroke-linecap:round;stroke-linejoin:round;stroke-miterlimit:10;stroke-dasharray:none;stroke-opacity:1"
         id="path788" />
    </g>
    <g
       id="g790"
       transform="translate(406.5776,325.4038)">
      <path
         d="M 0,0 -0.681,-0.419 -1.257,-0.995 -1.624,-1.676 -1.886,-2.462 -1.991,-3.248"
         style="fill:none;stroke:#000000;stroke-width:0.21;stroke-linecap:round;stroke-linejoin:bevel;stroke-miterlimit:10;stroke-dasharray:none;stroke-opacity:1"
         id="path792" />
    </g>
    <g
       id="g794"
       transform="translate(404.5343,322.1556)">
      <path
         d="M 0,0 V -38.193"
         style="fill:none;stroke:#000000;stroke-width:0.21;stroke-linecap:round;stroke-linejoin:round;stroke-miterlimit:10;stroke-dasharray:none;stroke-opacity:1"
         id="path796" />
    </g>
    <g
       id="g798"
       transform="translate(404.5867,283.9629)">
      <path
         d="M 0,0 0.105,-0.786 0.314,-1.519 0.733,-2.2 1.257,-2.777 1.886,-3.196"
         style="fill:none;stroke:#000000;stroke-width:0.21;stroke-linecap:round;stroke-linejoin:bevel;stroke-miterlimit:10;stroke-dasharray:none;stroke-opacity:1"
         id="path800" />
    </g>
    <g
       id="g802"
       transform="translate(406.4203,280.7147)">
      <path
         d="M 0,0 9.011,-5.029 M 45.475,-4.715 54.119,0"
         style="fill:none;stroke:#000000;stroke-width:0.21;stroke-linecap:round;stroke-linejoin:round;stroke-miterlimit:10;stroke-dasharray:none;stroke-opacity:1"
         id="path804" />
    </g>
    <g
       id="g806"
       transform="translate(460.5398,280.7671)">
      <path
         d="M 0,0 0.629,0.419 1.153,0.995 1.572,1.676 1.781,2.41 1.886,3.196"
         style="fill:none;stroke:#000000;stroke-width:0.21;stroke-linecap:round;stroke-linejoin:bevel;stroke-miterlimit:10;stroke-dasharray:none;stroke-opacity:1"
         id="path808" />
    </g>
    <g
       id="g810"
       transform="translate(462.4783,283.9629)">
      <path
         d="M 0,0 V 38.14"
         style="fill:none;stroke:#000000;stroke-width:0.21;stroke-linecap:round;stroke-linejoin:round;stroke-miterlimit:10;stroke-dasharray:none;stroke-opacity:1"
         id="path812" />
    </g>
    <g
       id="g814"
       transform="translate(462.4258,322.1032)">
      <path
         d="M 0,0 -0.105,0.786 -0.367,1.572 -0.786,2.253 -1.31,2.829 -1.991,3.248"
         style="fill:none;stroke:#000000;stroke-width:0.21;stroke-linecap:round;stroke-linejoin:bevel;stroke-miterlimit:10;stroke-dasharray:none;stroke-opacity:1"
         id="path816" />
    </g>
    <g
       id="g818"
       transform="translate(460.435,325.4038)">
      <path
         d="M 0,0 -9.064,4.663 M -46.942,1.31 v -47.623"
         style="fill:none;stroke:#000000;stroke-width:0.21;stroke-linecap:round;stroke-linejoin:round;stroke-miterlimit:10;stroke-dasharray:none;stroke-opacity:1"
         id="path820" />
    </g>
    <g
       id="g822"
       transform="translate(413.4931,279.0906)">
      <path
         d="M 0,0 0.052,-0.786 0.314,-1.519 0.681,-2.2 1.153,-2.777 1.729,-3.248 2.41,-3.615 3.143,-3.877 3.929,-3.929"
         style="fill:none;stroke:#000000;stroke-width:0.21;stroke-linecap:round;stroke-linejoin:bevel;stroke-miterlimit:10;stroke-dasharray:none;stroke-opacity:1"
         id="path824" />
    </g>
    <g
       id="g826"
       transform="translate(417.4224,275.1089)">
      <path
         d="M 0,0 H 32.063"
         style="fill:none;stroke:#000000;stroke-width:0.21;stroke-linecap:round;stroke-linejoin:round;stroke-miterlimit:10;stroke-dasharray:none;stroke-opacity:1"
         id="path828" />
    </g>
    <g
       id="g830"
       transform="translate(449.4854,275.1613)">
      <path
         d="M 0,0 0.733,0.052 1.415,0.262 2.043,0.629 2.567,1.1 3.039,1.624 3.405,2.253 3.615,2.934 3.667,3.667"
         style="fill:none;stroke:#000000;stroke-width:0.21;stroke-linecap:round;stroke-linejoin:bevel;stroke-miterlimit:10;stroke-dasharray:none;stroke-opacity:1"
         id="path832" />
    </g>
    <g
       id="g834"
       transform="translate(453.2051,278.8286)">
      <path
         d="M 0,0 V 47.885"
         style="fill:none;stroke:#000000;stroke-width:0.21;stroke-linecap:round;stroke-linejoin:round;stroke-miterlimit:10;stroke-dasharray:none;stroke-opacity:1"
         id="path836" />
    </g>
    <g
       id="g838"
       transform="translate(453.1527,326.7136)">
      <path
         d="M 0,0 -0.052,0.786 -0.314,1.519 -0.681,2.2 -1.153,2.777 -1.729,3.248 -2.41,3.615 -3.143,3.877 -3.929,3.929"
         style="fill:none;stroke:#000000;stroke-width:0.21;stroke-linecap:round;stroke-linejoin:bevel;stroke-miterlimit:10;stroke-dasharray:none;stroke-opacity:1"
         id="path840" />
    </g>
    <g
       id="g842"
       transform="translate(449.2234,330.6953)">
      <path
         d="M 0,0 H -31.801"
         style="fill:none;stroke:#000000;stroke-width:0.21;stroke-linecap:round;stroke-linejoin:round;stroke-miterlimit:10;stroke-dasharray:none;stroke-opacity:1"
         id="path844" />
    </g>
    <g
       id="g846"
       transform="translate(417.4224,330.6429)">
      <path
         d="M 0,0 -0.786,-0.052 -1.519,-0.314 -2.2,-0.681 -2.777,-1.153 -3.248,-1.729 -3.615,-2.41 -3.877,-3.143 -3.929,-3.929"
         style="fill:none;stroke:#000000;stroke-width:0.21;stroke-linecap:round;stroke-linejoin:bevel;stroke-miterlimit:10;stroke-dasharray:none;stroke-opacity:1"
         id="path848" />
    </g>
    <g
       id="g850"
       transform="translate(461.4828,281.3958)">
      <path
         d="M 0,0 0.471,0.576 0.838,1.205 1.048,1.886 1.1,2.62"
         style="fill:none;stroke:#000000;stroke-width:0.21;stroke-linecap:round;stroke-linejoin:bevel;stroke-miterlimit:10;stroke-dasharray:none;stroke-opacity:1"
         id="path852" />
    </g>
    <g
       id="g854"
       transform="translate(462.6354,284.0153)">
      <path
         d="M 0,0 V 38.036"
         style="fill:none;stroke:#000000;stroke-width:0.21;stroke-linecap:round;stroke-linejoin:round;stroke-miterlimit:10;stroke-dasharray:none;stroke-opacity:1"
         id="path856" />
    </g>
    <g
       id="g858"
       transform="translate(462.583,322.0508)">
      <path
         d="M 0,0 -0.052,0.733 -0.314,1.467 -0.681,2.096 -1.153,2.672"
         style="fill:none;stroke:#000000;stroke-width:0.21;stroke-linecap:round;stroke-linejoin:bevel;stroke-miterlimit:10;stroke-dasharray:none;stroke-opacity:1"
         id="path860" />
    </g>
    <g
       id="g862"
       transform="translate(461.4304,324.7751)">
      <path
         d="M 0,0 -0.471,0.419 7.282,-3.51"
         style="fill:none;stroke:#000000;stroke-width:0.21;stroke-linecap:round;stroke-linejoin:round;stroke-miterlimit:10;stroke-dasharray:none;stroke-opacity:1"
         id="path864" />
    </g>
    <g
       id="g866"
       transform="translate(470.7036,317.9644)">
      <path
         d="M 0,0 -0.105,0.786 -0.367,1.572 -0.786,2.253 -1.31,2.829 -1.991,3.248"
         style="fill:none;stroke:#000000;stroke-width:0.21;stroke-linecap:round;stroke-linejoin:bevel;stroke-miterlimit:10;stroke-dasharray:none;stroke-opacity:1"
         id="path868" />
    </g>
    <g
       id="g870"
       transform="translate(470.7559,317.9644)">
      <path
         d="M 0,0 V -2.41 L -6.601,-7.859"
         style="fill:none;stroke:#000000;stroke-width:0.21;stroke-linecap:round;stroke-linejoin:round;stroke-miterlimit:10;stroke-dasharray:none;stroke-opacity:1"
         id="path872" />
    </g>
    <g
       id="g874"
       transform="translate(464.1548,310.1058)">
      <path
         d="M 0,0 -0.472,-0.524 -0.786,-1.153 -0.891,-1.886"
         style="fill:none;stroke:#000000;stroke-width:0.21;stroke-linecap:round;stroke-linejoin:bevel;stroke-miterlimit:10;stroke-dasharray:none;stroke-opacity:1"
         id="path876" />
    </g>
    <g
       id="g878"
       transform="translate(463.2117,308.2197)">
      <path
         d="M 0,0 V -10.373"
         style="fill:none;stroke:#000000;stroke-width:0.21;stroke-linecap:round;stroke-linejoin:round;stroke-miterlimit:10;stroke-dasharray:none;stroke-opacity:1"
         id="path880" />
    </g>
    <g
       id="g882"
       transform="translate(463.2641,297.8464)">
      <path
         d="M 0,0 0.105,-0.733 0.419,-1.415 0.943,-1.938"
         style="fill:none;stroke:#000000;stroke-width:0.21;stroke-linecap:round;stroke-linejoin:bevel;stroke-miterlimit:10;stroke-dasharray:none;stroke-opacity:1"
         id="path884" />
    </g>
    <g
       id="g886"
       transform="translate(464.1548,295.908)">
      <path
         d="m 0,0 6.601,-5.134 v -2.41"
         style="fill:none;stroke:#000000;stroke-width:0.21;stroke-linecap:round;stroke-linejoin:round;stroke-miterlimit:10;stroke-dasharray:none;stroke-opacity:1"
         id="path888" />
    </g>
    <g
       id="g890"
       transform="translate(468.7651,285.1155)">
      <path
         d="m 0,0 0.681,0.472 0.524,0.576 0.419,0.681 0.21,0.733 0.104,0.786"
         style="fill:none;stroke:#000000;stroke-width:0.21;stroke-linecap:round;stroke-linejoin:bevel;stroke-miterlimit:10;stroke-dasharray:none;stroke-opacity:1"
         id="path892" />
    </g>
    <g
       id="g894"
       transform="translate(468.8175,285.0631)">
      <path
         d="m 0,0 -7.806,-4.191 0.524,0.524"
         style="fill:none;stroke:#000000;stroke-width:0.21;stroke-linecap:round;stroke-linejoin:round;stroke-miterlimit:10;stroke-dasharray:none;stroke-opacity:1"
         id="path896" />
    </g>
    <g
       id="g898"
       transform="translate(425.3333,320.7935)">
      <path
         d="m 0,0 -0.052,0.21 -0.21,0.157 H -0.471 L -0.681,0.21 -0.733,0 l 0.052,-0.21 0.21,-0.157 h 0.209 l 0.21,0.157 z"
         style="fill:none;stroke:#000000;stroke-width:0.164;stroke-linecap:round;stroke-linejoin:round;stroke-miterlimit:10;stroke-dasharray:none;stroke-opacity:1"
         id="path900" />
    </g>
    <g
       id="g902"
       transform="translate(430.2581,322.3652)">
      <path
         d="m 0,0 -0.052,0.21 -0.21,0.157 H -0.471 L -0.681,0.21 -0.733,0 l 0.052,-0.21 0.21,-0.157 h 0.209 l 0.21,0.157 z"
         style="fill:none;stroke:#000000;stroke-width:0.164;stroke-linecap:round;stroke-linejoin:round;stroke-miterlimit:10;stroke-dasharray:none;stroke-opacity:1"
         id="path904" />
    </g>
    <g
       id="g906"
       transform="translate(437.1212,322.3128)">
      <path
         d="m 0,0 -0.052,0.21 -0.21,0.157 h -0.21 L -0.681,0.21 -0.733,0 l 0.052,-0.21 0.209,-0.157 h 0.21 l 0.21,0.157 z"
         style="fill:none;stroke:#000000;stroke-width:0.164;stroke-linecap:round;stroke-linejoin:round;stroke-miterlimit:10;stroke-dasharray:none;stroke-opacity:1"
         id="path908" />
    </g>
    <g
       id="g910"
       transform="translate(442.0983,320.7935)">
      <path
         d="m 0,0 -0.052,0.21 -0.21,0.157 h -0.21 L -0.681,0.21 -0.733,0 l 0.052,-0.21 0.209,-0.157 h 0.21 l 0.21,0.157 z"
         style="fill:none;stroke:#000000;stroke-width:0.164;stroke-linecap:round;stroke-linejoin:round;stroke-miterlimit:10;stroke-dasharray:none;stroke-opacity:1"
         id="path912" />
    </g>
    <g
       id="g1006">
      <g
         id="g1008"
         clip-path="url(#clipPath1012)">
        <path
           d="M 118.063,143.923 H 540.174 V 492.11 H 118.063 Z"
           style="fill:none;stroke:#000000;stroke-width:0.164;stroke-linecap:round;stroke-linejoin:round;stroke-miterlimit:10;stroke-dasharray:none;stroke-opacity:1"
           id="path1014" />
      </g>
    </g>
  </g>
</svg>
