<?xml version="1.0" encoding="UTF-8" standalone="no"?>
<!-- Created with Inkscape (http://www.inkscape.org/) -->

<svg
   version="1.1"
   id="svg162"
   width="99.332947"
   height="74.395203"
   viewBox="0 0 99.332947 74.395203"
   sodipodi:docname="g742.svg"
   xml:space="preserve"
   inkscape:export-filename="g7422.svg"
   inkscape:export-xdpi="96"
   inkscape:export-ydpi="96"
   xmlns:inkscape="http://www.inkscape.org/namespaces/inkscape"
   xmlns:sodipodi="http://sodipodi.sourceforge.net/DTD/sodipodi-0.dtd"
   xmlns="http://www.w3.org/2000/svg"
   xmlns:svg="http://www.w3.org/2000/svg"><defs
     id="defs166"><clipPath
       clipPathUnits="userSpaceOnUse"
       id="clipPath1012"><path
         d="m 393.395,268.682 h 86.457 v 68.732 h -86.457 z"
         id="path1010" /></clipPath><style
       id="style3817">
      .cls-1 {
        fill: #858484;
        fill-rule: evenodd;
      }
    </style></defs><sodipodi:namedview
     id="namedview164"
     pagecolor="#505050"
     bordercolor="#eeeeee"
     borderopacity="1"
     inkscape:showpageshadow="0"
     inkscape:pageopacity="0"
     inkscape:pagecheckerboard="0"
     inkscape:deskcolor="#505050"
     showgrid="true"><inkscape:grid
       type="xygrid"
       id="grid3831" /></sodipodi:namedview><g
     id="g168"
     inkscape:groupmode="layer"
     inkscape:label="SPBrochure_06-05-2023"
     transform="matrix(1.3333333,0,0,-1.3333333,-528.48157,441.06705)"><g
       id="g742"
       transform="translate(403.7484,307.9054)"
       inkscape:export-filename="g742.svg"
       inkscape:export-xdpi="96"
       inkscape:export-ydpi="96"><path
         d="M 0,0 -0.052,0.681 -0.314,1.362 -0.681,1.938 -1.153,2.462"
         style="fill:none;stroke:#000000;stroke-width:0.21;stroke-linecap:round;stroke-linejoin:bevel;stroke-miterlimit:10;stroke-dasharray:none;stroke-opacity:1"
         id="path744" /></g><g
       id="g746"
       transform="translate(402.6483,310.3677)"><path
         d="m 0,0 -6.13,5.187 v 2.41"
         style="fill:none;stroke:#000000;stroke-width:0.21;stroke-linecap:round;stroke-linejoin:round;stroke-miterlimit:10;stroke-dasharray:none;stroke-opacity:1"
         id="path748" /></g><g
       id="g750"
       transform="translate(398.5618,321.2126)"><path
         d="M 0,0 -0.681,-0.419 -1.257,-0.995 -1.624,-1.676 -1.886,-2.462 -1.991,-3.248"
         style="fill:none;stroke:#000000;stroke-width:0.21;stroke-linecap:round;stroke-linejoin:bevel;stroke-miterlimit:10;stroke-dasharray:none;stroke-opacity:1"
         id="path752" /></g><g
       id="g754"
       transform="translate(398.5094,321.265)"><path
         d="M 0,0 7.439,3.929 6.916,3.353"
         style="fill:none;stroke:#000000;stroke-width:0.21;stroke-linecap:round;stroke-linejoin:round;stroke-miterlimit:10;stroke-dasharray:none;stroke-opacity:1"
         id="path756" /></g><g
       id="g758"
       transform="translate(405.425,324.5656)"><path
         d="m 0,0 -0.419,-0.524 -0.314,-0.629 -0.21,-0.681 -0.052,-0.681"
         style="fill:none;stroke:#000000;stroke-width:0.21;stroke-linecap:round;stroke-linejoin:bevel;stroke-miterlimit:10;stroke-dasharray:none;stroke-opacity:1"
         id="path760" /></g><g
       id="g762"
       transform="translate(404.3771,322.0508)"><path
         d="M 0,0 V -38.036"
         style="fill:none;stroke:#000000;stroke-width:0.21;stroke-linecap:round;stroke-linejoin:round;stroke-miterlimit:10;stroke-dasharray:none;stroke-opacity:1"
         id="path764" /></g><g
       id="g766"
       transform="translate(404.4295,284.0153)"><path
         d="M 0,0 0.105,-0.786 0.314,-1.519 0.733,-2.148 1.205,-2.724"
         style="fill:none;stroke:#000000;stroke-width:0.21;stroke-linecap:round;stroke-linejoin:bevel;stroke-miterlimit:10;stroke-dasharray:none;stroke-opacity:1"
         id="path768" /></g><g
       id="g770"
       transform="translate(405.6345,281.2386)"><path
         d="M 0,0 0.419,-0.367 -7.23,3.877"
         style="fill:none;stroke:#000000;stroke-width:0.21;stroke-linecap:round;stroke-linejoin:round;stroke-miterlimit:10;stroke-dasharray:none;stroke-opacity:1"
         id="path772" /></g><g
       id="g774"
       transform="translate(396.5186,288.3637)"><path
         d="M 0,0 0.105,-0.786 0.314,-1.519 0.733,-2.2 1.257,-2.777 1.886,-3.196"
         style="fill:none;stroke:#000000;stroke-width:0.21;stroke-linecap:round;stroke-linejoin:bevel;stroke-miterlimit:10;stroke-dasharray:none;stroke-opacity:1"
         id="path776" /></g><g
       id="g778"
       transform="translate(396.4662,288.3637)"><path
         d="M 0,0 V 2.462 L 6.182,7.439"
         style="fill:none;stroke:#000000;stroke-width:0.21;stroke-linecap:round;stroke-linejoin:round;stroke-miterlimit:10;stroke-dasharray:none;stroke-opacity:1"
         id="path780" /></g><g
       id="g782"
       transform="translate(402.5959,295.8032)"><path
         d="M 0,0 0.472,0.471 0.786,1.048 1.048,1.624 1.1,2.305"
         style="fill:none;stroke:#000000;stroke-width:0.21;stroke-linecap:round;stroke-linejoin:bevel;stroke-miterlimit:10;stroke-dasharray:none;stroke-opacity:1"
         id="path784" /></g><g
       id="g786"
       transform="translate(403.7484,298.056)"><path
         d="M 0,0 0.052,9.849 M 11.421,31.906 2.777,27.4"
         style="fill:none;stroke:#000000;stroke-width:0.21;stroke-linecap:round;stroke-linejoin:round;stroke-miterlimit:10;stroke-dasharray:none;stroke-opacity:1"
         id="path788" /></g><g
       id="g790"
       transform="translate(406.5776,325.4038)"><path
         d="M 0,0 -0.681,-0.419 -1.257,-0.995 -1.624,-1.676 -1.886,-2.462 -1.991,-3.248"
         style="fill:none;stroke:#000000;stroke-width:0.21;stroke-linecap:round;stroke-linejoin:bevel;stroke-miterlimit:10;stroke-dasharray:none;stroke-opacity:1"
         id="path792" /></g><g
       id="g794"
       transform="translate(404.5343,322.1556)"><path
         d="M 0,0 V -38.193"
         style="fill:none;stroke:#000000;stroke-width:0.21;stroke-linecap:round;stroke-linejoin:round;stroke-miterlimit:10;stroke-dasharray:none;stroke-opacity:1"
         id="path796" /></g><g
       id="g798"
       transform="translate(404.5867,283.9629)"><path
         d="M 0,0 0.105,-0.786 0.314,-1.519 0.733,-2.2 1.257,-2.777 1.886,-3.196"
         style="fill:none;stroke:#000000;stroke-width:0.21;stroke-linecap:round;stroke-linejoin:bevel;stroke-miterlimit:10;stroke-dasharray:none;stroke-opacity:1"
         id="path800" /></g><g
       id="g802"
       transform="translate(406.4203,280.7147)"><path
         d="M 0,0 9.011,-5.029 M 45.475,-4.715 54.119,0"
         style="fill:none;stroke:#000000;stroke-width:0.21;stroke-linecap:round;stroke-linejoin:round;stroke-miterlimit:10;stroke-dasharray:none;stroke-opacity:1"
         id="path804" /></g><g
       id="g806"
       transform="translate(460.5398,280.7671)"><path
         d="M 0,0 0.629,0.419 1.153,0.995 1.572,1.676 1.781,2.41 1.886,3.196"
         style="fill:none;stroke:#000000;stroke-width:0.21;stroke-linecap:round;stroke-linejoin:bevel;stroke-miterlimit:10;stroke-dasharray:none;stroke-opacity:1"
         id="path808" /></g><g
       id="g810"
       transform="translate(462.4783,283.9629)"><path
         d="M 0,0 V 38.14"
         style="fill:none;stroke:#000000;stroke-width:0.21;stroke-linecap:round;stroke-linejoin:round;stroke-miterlimit:10;stroke-dasharray:none;stroke-opacity:1"
         id="path812" /></g><g
       id="g814"
       transform="translate(462.4258,322.1032)"><path
         d="M 0,0 -0.105,0.786 -0.367,1.572 -0.786,2.253 -1.31,2.829 -1.991,3.248"
         style="fill:none;stroke:#000000;stroke-width:0.21;stroke-linecap:round;stroke-linejoin:bevel;stroke-miterlimit:10;stroke-dasharray:none;stroke-opacity:1"
         id="path816" /></g><g
       id="g818"
       transform="translate(460.435,325.4038)"><path
         d="M 0,0 -9.064,4.663 M -46.942,1.31 v -47.623"
         style="fill:none;stroke:#000000;stroke-width:0.21;stroke-linecap:round;stroke-linejoin:round;stroke-miterlimit:10;stroke-dasharray:none;stroke-opacity:1"
         id="path820" /></g><g
       id="g822"
       transform="translate(413.4931,279.0906)"><path
         d="M 0,0 0.052,-0.786 0.314,-1.519 0.681,-2.2 1.153,-2.777 1.729,-3.248 2.41,-3.615 3.143,-3.877 3.929,-3.929"
         style="fill:none;stroke:#000000;stroke-width:0.21;stroke-linecap:round;stroke-linejoin:bevel;stroke-miterlimit:10;stroke-dasharray:none;stroke-opacity:1"
         id="path824" /></g><g
       id="g826"
       transform="translate(417.4224,275.1089)"><path
         d="M 0,0 H 32.063"
         style="fill:none;stroke:#000000;stroke-width:0.21;stroke-linecap:round;stroke-linejoin:round;stroke-miterlimit:10;stroke-dasharray:none;stroke-opacity:1"
         id="path828" /></g><g
       id="g830"
       transform="translate(449.4854,275.1613)"><path
         d="M 0,0 0.733,0.052 1.415,0.262 2.043,0.629 2.567,1.1 3.039,1.624 3.405,2.253 3.615,2.934 3.667,3.667"
         style="fill:none;stroke:#000000;stroke-width:0.21;stroke-linecap:round;stroke-linejoin:bevel;stroke-miterlimit:10;stroke-dasharray:none;stroke-opacity:1"
         id="path832" /></g><g
       id="g834"
       transform="translate(453.2051,278.8286)"><path
         d="M 0,0 V 47.885"
         style="fill:none;stroke:#000000;stroke-width:0.21;stroke-linecap:round;stroke-linejoin:round;stroke-miterlimit:10;stroke-dasharray:none;stroke-opacity:1"
         id="path836" /></g><g
       id="g838"
       transform="translate(453.1527,326.7136)"><path
         d="M 0,0 -0.052,0.786 -0.314,1.519 -0.681,2.2 -1.153,2.777 -1.729,3.248 -2.41,3.615 -3.143,3.877 -3.929,3.929"
         style="fill:none;stroke:#000000;stroke-width:0.21;stroke-linecap:round;stroke-linejoin:bevel;stroke-miterlimit:10;stroke-dasharray:none;stroke-opacity:1"
         id="path840" /></g><g
       id="g842"
       transform="translate(449.2234,330.6953)"><path
         d="M 0,0 H -31.801"
         style="fill:none;stroke:#000000;stroke-width:0.21;stroke-linecap:round;stroke-linejoin:round;stroke-miterlimit:10;stroke-dasharray:none;stroke-opacity:1"
         id="path844" /></g><g
       id="g846"
       transform="translate(417.4224,330.6429)"><path
         d="M 0,0 -0.786,-0.052 -1.519,-0.314 -2.2,-0.681 -2.777,-1.153 -3.248,-1.729 -3.615,-2.41 -3.877,-3.143 -3.929,-3.929"
         style="fill:none;stroke:#000000;stroke-width:0.21;stroke-linecap:round;stroke-linejoin:bevel;stroke-miterlimit:10;stroke-dasharray:none;stroke-opacity:1"
         id="path848" /></g><g
       id="g850"
       transform="translate(461.4828,281.3958)"><path
         d="M 0,0 0.471,0.576 0.838,1.205 1.048,1.886 1.1,2.62"
         style="fill:none;stroke:#000000;stroke-width:0.21;stroke-linecap:round;stroke-linejoin:bevel;stroke-miterlimit:10;stroke-dasharray:none;stroke-opacity:1"
         id="path852" /></g><g
       id="g854"
       transform="translate(462.6354,284.0153)"><path
         d="M 0,0 V 38.036"
         style="fill:none;stroke:#000000;stroke-width:0.21;stroke-linecap:round;stroke-linejoin:round;stroke-miterlimit:10;stroke-dasharray:none;stroke-opacity:1"
         id="path856" /></g><g
       id="g858"
       transform="translate(462.583,322.0508)"><path
         d="M 0,0 -0.052,0.733 -0.314,1.467 -0.681,2.096 -1.153,2.672"
         style="fill:none;stroke:#000000;stroke-width:0.21;stroke-linecap:round;stroke-linejoin:bevel;stroke-miterlimit:10;stroke-dasharray:none;stroke-opacity:1"
         id="path860" /></g><g
       id="g862"
       transform="translate(461.4304,324.7751)"><path
         d="M 0,0 -0.471,0.419 7.282,-3.51"
         style="fill:none;stroke:#000000;stroke-width:0.21;stroke-linecap:round;stroke-linejoin:round;stroke-miterlimit:10;stroke-dasharray:none;stroke-opacity:1"
         id="path864" /></g><g
       id="g866"
       transform="translate(470.7036,317.9644)"><path
         d="M 0,0 -0.105,0.786 -0.367,1.572 -0.786,2.253 -1.31,2.829 -1.991,3.248"
         style="fill:none;stroke:#000000;stroke-width:0.21;stroke-linecap:round;stroke-linejoin:bevel;stroke-miterlimit:10;stroke-dasharray:none;stroke-opacity:1"
         id="path868" /></g><g
       id="g870"
       transform="translate(470.7559,317.9644)"><path
         d="M 0,0 V -2.41 L -6.601,-7.859"
         style="fill:none;stroke:#000000;stroke-width:0.21;stroke-linecap:round;stroke-linejoin:round;stroke-miterlimit:10;stroke-dasharray:none;stroke-opacity:1"
         id="path872" /></g><g
       id="g874"
       transform="translate(464.1548,310.1058)"><path
         d="M 0,0 -0.472,-0.524 -0.786,-1.153 -0.891,-1.886"
         style="fill:none;stroke:#000000;stroke-width:0.21;stroke-linecap:round;stroke-linejoin:bevel;stroke-miterlimit:10;stroke-dasharray:none;stroke-opacity:1"
         id="path876" /></g><g
       id="g878"
       transform="translate(463.2117,308.2197)"><path
         d="M 0,0 V -10.373"
         style="fill:none;stroke:#000000;stroke-width:0.21;stroke-linecap:round;stroke-linejoin:round;stroke-miterlimit:10;stroke-dasharray:none;stroke-opacity:1"
         id="path880" /></g><g
       id="g882"
       transform="translate(463.2641,297.8464)"><path
         d="M 0,0 0.105,-0.733 0.419,-1.415 0.943,-1.938"
         style="fill:none;stroke:#000000;stroke-width:0.21;stroke-linecap:round;stroke-linejoin:bevel;stroke-miterlimit:10;stroke-dasharray:none;stroke-opacity:1"
         id="path884" /></g><g
       id="g886"
       transform="translate(464.1548,295.908)"><path
         d="m 0,0 6.601,-5.134 v -2.41"
         style="fill:none;stroke:#000000;stroke-width:0.21;stroke-linecap:round;stroke-linejoin:round;stroke-miterlimit:10;stroke-dasharray:none;stroke-opacity:1"
         id="path888" /></g><g
       id="g890"
       transform="translate(468.7651,285.1155)"><path
         d="m 0,0 0.681,0.472 0.524,0.576 0.419,0.681 0.21,0.733 0.104,0.786"
         style="fill:none;stroke:#000000;stroke-width:0.21;stroke-linecap:round;stroke-linejoin:bevel;stroke-miterlimit:10;stroke-dasharray:none;stroke-opacity:1"
         id="path892" /></g><g
       id="g894"
       transform="translate(468.8175,285.0631)"><path
         d="m 0,0 -7.806,-4.191 0.524,0.524"
         style="fill:none;stroke:#000000;stroke-width:0.21;stroke-linecap:round;stroke-linejoin:round;stroke-miterlimit:10;stroke-dasharray:none;stroke-opacity:1"
         id="path896" /></g><g
       id="g898"
       transform="translate(425.3333,320.7935)"><path
         d="m 0,0 -0.052,0.21 -0.21,0.157 H -0.471 L -0.681,0.21 -0.733,0 l 0.052,-0.21 0.21,-0.157 h 0.209 l 0.21,0.157 z"
         style="fill:none;stroke:#000000;stroke-width:0.164;stroke-linecap:round;stroke-linejoin:round;stroke-miterlimit:10;stroke-dasharray:none;stroke-opacity:1"
         id="path900" /></g><g
       id="g902"
       transform="translate(430.2581,322.3652)"><path
         d="m 0,0 -0.052,0.21 -0.21,0.157 H -0.471 L -0.681,0.21 -0.733,0 l 0.052,-0.21 0.21,-0.157 h 0.209 l 0.21,0.157 z"
         style="fill:none;stroke:#000000;stroke-width:0.164;stroke-linecap:round;stroke-linejoin:round;stroke-miterlimit:10;stroke-dasharray:none;stroke-opacity:1"
         id="path904" /></g><g
       id="g906"
       transform="translate(437.1212,322.3128)"><path
         d="m 0,0 -0.052,0.21 -0.21,0.157 h -0.21 L -0.681,0.21 -0.733,0 l 0.052,-0.21 0.209,-0.157 h 0.21 l 0.21,0.157 z"
         style="fill:none;stroke:#000000;stroke-width:0.164;stroke-linecap:round;stroke-linejoin:round;stroke-miterlimit:10;stroke-dasharray:none;stroke-opacity:1"
         id="path908" /></g><g
       id="g910"
       transform="translate(442.0983,320.7935)"><path
         d="m 0,0 -0.052,0.21 -0.21,0.157 h -0.21 L -0.681,0.21 -0.733,0 l 0.052,-0.21 0.209,-0.157 h 0.21 l 0.21,0.157 z"
         style="fill:none;stroke:#000000;stroke-width:0.164;stroke-linecap:round;stroke-linejoin:round;stroke-miterlimit:10;stroke-dasharray:none;stroke-opacity:1"
         id="path912" /></g><g
       id="g1006"><g
         id="g1008"
         clip-path="url(#clipPath1012)"><path
           d="M 118.063,143.923 H 540.174 V 492.11 H 118.063 Z"
           style="fill:none;stroke:#000000;stroke-width:0.164;stroke-linecap:round;stroke-linejoin:round;stroke-miterlimit:10;stroke-dasharray:none;stroke-opacity:1"
           id="path1014" /></g></g><g
       id="g3829"
       transform="matrix(0.01772605,0,0,-0.01772605,424.55536,314.6056)"
       style="stroke-width:44728.7;stroke-dasharray:none"><path
         id="LETTERMARK"
         class="cls-1"
         d="m 964.775,635.545 -47.463,-11.507 19.112,-78.457 q 3.447,-14.148 -1.646,-23.768 -5.093,-9.62 -16.748,-12.444 a 31.816,31.816 0 0 0 -16.174,0.159 30.317,30.317 0 0 0 -13.461,7.641 26.121,26.121 0 0 0 -7.313,12.62 l -19.657,80.7 -47.182,-11.44 51.192,-210.149 47.181,11.44 -18.394,75.51 a 72.987,72.987 0 0 1 24.136,-7.2 67.181,67.181 0 0 1 24.366,1.011 q 17.41,4.221 28.875,15.162 a 54.086,54.086 0 0 1 15.339,27.377 q 3.875,16.446 -0.97,36.339 z M 776.716,484.907 a 40.53,40.53 0 0 0 -14.967,-4.5 32.908,32.908 0 0 0 -17.554,2.67 34.288,34.288 0 0 0 -13.918,11.368 37.268,37.268 0 0 0 -6.758,17.937 35.556,35.556 0 0 0 2.558,18.516 34.915,34.915 0 0 0 10.993,14.2 32.616,32.616 0 0 0 16.319,6.622 40.508,40.508 0 0 0 15.611,-0.94 56.5,56.5 0 0 0 14.2,-6.327 l 19.781,37.291 a 75.774,75.774 0 0 1 -26.049,11.84 85.369,85.369 0 0 1 -30.986,1.829 q -22.822,-2.662 -39.791,-15.53 a 77.411,77.411 0 0 1 -25.1,-32.251 79.863,79.863 0 0 1 -5.613,-40.864 80.849,80.849 0 0 1 15.034,-38.891 77.962,77.962 0 0 1 31.9,-25.746 q 19.414,-8.622 42.093,-5.976 a 84.986,84.986 0 0 1 29.871,8.929 77.809,77.809 0 0 1 22.601,17.516 l -27.888,31.875 a 54.242,54.242 0 0 0 -12.337,-9.568 z M 670.2,474.233 l -29.743,-1.242 -3.419,81.454 a 60.228,60.228 0 0 0 -49.621,17.5 l 4.239,-100.992 -18.481,-0.772 1.869,-44.512 18.336,0.766 1.486,-35.435 49.6,-10.05 -2,47.537 29.6,1.236 z m -113.138,104.515 -48.841,0.482 -1.513,-152.821 48.842,-0.482 z m -26.19,-166.082 a 29.059,29.059 0 1 1 29.028,-29.157 29.093,29.093 0 0 1 -29.028,29.157 z m -0.15,-47.687 a 18.626,18.626 0 1 0 18.731,18.563 18.647,18.647 0 0 0 -18.731,-18.563 z m 0.1,27.9 a 9.272,9.272 0 1 1 9.261,-9.3 9.282,9.282 0 0 1 -9.263,9.301 z M 440.581,554.7 a 60.664,60.664 0 0 0 -43.736,18.8 L 376.2,532.033 362.092,589.3 l -47.29,4.887 -73.131,-146.093 51.891,-5.362 39.414,94.2 15.924,-99.919 51.89,-5.362 -10.93,44.47 24.328,52.421 21.674,-100.515 52.9,-5.466 -35.032,133.531 A 61.191,61.191 0 0 0 440.581,554.7 Z M 141.686,490.4 a 29.167,29.167 0 0 0 9.619,2.9 q 5.892,0.881 17.92,1.829 0.912,0.068 1.911,0.183 c 0.666,0.079 1.455,0.149 2.367,0.215 q 21.669,1.917 36.731,6.556 a 61.94,61.94 0 0 1 25.153,14.345 q 10.092,9.7 14.243,25.907 4.8,18.721 -0.674,35.217 -5.474,16.496 -20.143,28.5 -14.678,12 -36.656,17.606 a 113.258,113.258 0 0 1 -46.849,2.274 116.258,116.258 0 0 1 -43.9,-17.079 l 23.441,-41.246 q 28.791,16.318 54.132,9.857 11.9,-3.034 16.744,-8.586 a 13.113,13.113 0 0 0 3.054,-12.534 13.907,13.907 0 0 0 -4.7,-7.581 q -3.486,-2.829 -11.73,-4.45 a 162.228,162.228 0 0 0 -23.459,-2.2 Q 133.438,541.163 113.184,531.67 92.93,522.177 86.126,495.64 a 61.322,61.322 0 0 1 -0.265,-30.439 q 3.705,-14.933 16.77,-26.822 13.065,-11.889 36.025,-17.743 22.12,-5.642 41.693,-2.894 a 113.166,113.166 0 0 1 37.708,12.408 l -19.547,41.89 a 69.341,69.341 0 0 0 -22.031,-7.105 58.575,58.575 0 0 0 -24.022,0.843 q -9.24,2.356 -13.174,7.377 A 12.568,12.568 0 0 0 137,484.6 a 8.974,8.974 0 0 0 4.686,5.8 z"
         style="stroke-width:44728.7;stroke-dasharray:none" /><path
         id="CLOSED_SWITCH"
         data-name="CLOSED SWITCH"
         class="cls-1"
         d="M 575.657,625.8 482.2,677.793 A 60.9,60.9 0 0 1 391.434,653.912 C 277.087,667.929 173.9,692.273 88.766,724.257 l -0.13,-38.476 C 172.745,654.19 274.468,630.06 387.157,615.967 A 60.866,60.866 0 0 1 507.552,628.3 c 0,0.766 -0.024,1.525 -0.05,2.284 m 0,0 93.316,-51.913 a 60.89,60.89 0 0 1 95.1,36.259 C 808.7,628.26 910.581,651.7 994.9,682.727 l 0.13,38.473 C 909.68,689.791 806.33,666.143 691.891,652.9 A 60.872,60.872 0 0 1 575.607,628.068 c 0,-0.759 0.025,-1.511 0.05,-2.263 m -128.85,34.285 a 31.605,31.605 0 0 0 11.936,-2.383 l 6.4,-3.561 a 31.642,31.642 0 1 0 -18.336,5.944 m 171.1,-57.788 a 31.693,31.693 0 1 0 5.446,-3.172"
         style="stroke-width:44728.7;stroke-dasharray:none" /></g></g></svg>
