<?xml version="1.0" encoding="UTF-8" standalone="no"?>
<!-- Created with Inkscape (http://www.inkscape.org/) -->

<svg
   width="204691.06mm"
   height="153302.98mm"
   viewBox="0 0 204691.06 153302.98"
   version="1.1"
   id="svg5247"
   xmlns="http://www.w3.org/2000/svg"
   xmlns:svg="http://www.w3.org/2000/svg">
  <defs
     id="defs5244" />
  <g
     id="layer1"
     transform="translate(-55.056547,-103.36593)">
    <g
       id="g742"
       transform="matrix(2747.5422,0,0,-2747.5422,20351.697,63008.067)">
      <path
         d="M 0,0 -0.052,0.681 -0.314,1.362 -0.681,1.938 -1.153,2.462"
         style="fill:none;stroke:#ffffff;stroke-width:1.68;stroke-linecap:round;stroke-linejoin:bevel;stroke-miterlimit:10;stroke-dasharray:none;stroke-opacity:1"
         id="path744" />
    </g>
    <g
       id="g746"
       transform="matrix(2747.5422,0,0,-2747.5422,17329.124,56242.754)">
      <path
         d="m 0,0 -6.13,5.187 v 2.41"
         style="fill:none;stroke:#ffffff;stroke-width:1.68;stroke-linecap:round;stroke-linejoin:round;stroke-miterlimit:10;stroke-dasharray:none;stroke-opacity:1"
         id="path748" />
    </g>
    <g
       id="g750"
       transform="matrix(2747.5422,0,0,-2747.5422,6101.2969,26446.009)">
      <path
         d="M 0,0 -0.681,-0.419 -1.257,-0.995 -1.624,-1.676 -1.886,-2.462 -1.991,-3.248"
         style="fill:none;stroke:#ffffff;stroke-width:1.68;stroke-linecap:round;stroke-linejoin:bevel;stroke-miterlimit:10;stroke-dasharray:none;stroke-opacity:1"
         id="path752" />
    </g>
    <g
       id="g754"
       transform="matrix(2747.5422,0,0,-2747.5422,5957.3221,26302.003)">
      <path
         d="M 0,0 7.439,3.929 6.916,3.353"
         style="fill:none;stroke:#ffffff;stroke-width:1.68;stroke-linecap:round;stroke-linejoin:round;stroke-miterlimit:10;stroke-dasharray:none;stroke-opacity:1"
         id="path756" />
    </g>
    <g
       id="g758"
       transform="matrix(2747.5422,0,0,-2747.5422,24958.224,17233.452)">
      <path
         d="m 0,0 -0.419,-0.524 -0.314,-0.629 -0.21,-0.681 -0.052,-0.681"
         style="fill:none;stroke:#ffffff;stroke-width:1.68;stroke-linecap:round;stroke-linejoin:bevel;stroke-miterlimit:10;stroke-dasharray:none;stroke-opacity:1"
         id="path760" />
    </g>
    <g
       id="g762"
       transform="matrix(2747.5422,0,0,-2747.5422,22079.081,24143.005)">
      <path
         d="M 0,0 V -38.036"
         style="fill:none;stroke:#ffffff;stroke-width:1.68;stroke-linecap:round;stroke-linejoin:round;stroke-miterlimit:10;stroke-dasharray:none;stroke-opacity:1"
         id="path764" />
    </g>
    <g
       id="g766"
       transform="matrix(2747.5422,0,0,-2747.5422,22223.05,128647.15)">
      <path
         d="M 0,0 0.105,-0.786 0.314,-1.519 0.733,-2.148 1.205,-2.724"
         style="fill:none;stroke:#ffffff;stroke-width:1.68;stroke-linecap:round;stroke-linejoin:bevel;stroke-miterlimit:10;stroke-dasharray:none;stroke-opacity:1"
         id="path768" />
    </g>
    <g
       id="g770"
       transform="matrix(2747.5422,0,0,-2747.5422,25533.834,136276.19)">
      <path
         d="M 0,0 0.419,-0.367 -7.23,3.877"
         style="fill:none;stroke:#ffffff;stroke-width:1.68;stroke-linecap:round;stroke-linejoin:round;stroke-miterlimit:10;stroke-dasharray:none;stroke-opacity:1"
         id="path772" />
    </g>
    <g
       id="g774"
       transform="matrix(2747.5422,0,0,-2747.5422,487.5152,116699.73)">
      <path
         d="M 0,0 0.105,-0.786 0.314,-1.519 0.733,-2.2 1.257,-2.777 1.886,-3.196"
         style="fill:none;stroke:#ffffff;stroke-width:1.68;stroke-linecap:round;stroke-linejoin:bevel;stroke-miterlimit:10;stroke-dasharray:none;stroke-opacity:1"
         id="path776" />
    </g>
    <g
       id="g778"
       transform="matrix(2747.5422,0,0,-2747.5422,343.54847,116699.73)">
      <path
         d="M 0,0 V 2.462 L 6.182,7.439"
         style="fill:none;stroke:#ffffff;stroke-width:1.68;stroke-linecap:round;stroke-linejoin:round;stroke-miterlimit:10;stroke-dasharray:none;stroke-opacity:1"
         id="path780" />
    </g>
    <g
       id="g782"
       transform="matrix(2747.5422,0,0,-2747.5422,17185.158,96259.393)">
      <path
         d="M 0,0 0.472,0.471 0.786,1.048 1.048,1.624 1.1,2.305"
         style="fill:none;stroke:#ffffff;stroke-width:1.68;stroke-linecap:round;stroke-linejoin:bevel;stroke-miterlimit:10;stroke-dasharray:none;stroke-opacity:1"
         id="path784" />
    </g>
    <g
       id="g786"
       transform="matrix(2747.5422,0,0,-2747.5422,20351.697,90069.713)">
      <path
         d="M 0,0 0.052,9.849 M 11.421,31.906 2.777,27.4"
         style="fill:none;stroke:#ffffff;stroke-width:1.68;stroke-linecap:round;stroke-linejoin:round;stroke-miterlimit:10;stroke-dasharray:none;stroke-opacity:1"
         id="path788" />
    </g>
    <g
       id="g790"
       transform="matrix(2747.5422,0,0,-2747.5422,28125.044,14930.448)">
      <path
         d="M 0,0 -0.681,-0.419 -1.257,-0.995 -1.624,-1.676 -1.886,-2.462 -1.991,-3.248"
         style="fill:none;stroke:#ffffff;stroke-width:1.68;stroke-linecap:round;stroke-linejoin:bevel;stroke-miterlimit:10;stroke-dasharray:none;stroke-opacity:1"
         id="path792" />
    </g>
    <g
       id="g794"
       transform="matrix(2747.5422,0,0,-2747.5422,22510.991,23855.072)">
      <path
         d="M 0,0 V -38.193"
         style="fill:none;stroke:#ffffff;stroke-width:1.68;stroke-linecap:round;stroke-linejoin:round;stroke-miterlimit:10;stroke-dasharray:none;stroke-opacity:1"
         id="path796" />
    </g>
    <g
       id="g798"
       transform="matrix(2747.5422,0,0,-2747.5422,22654.965,128791.08)">
      <path
         d="M 0,0 0.105,-0.786 0.314,-1.519 0.733,-2.2 1.257,-2.777 1.886,-3.196"
         style="fill:none;stroke:#ffffff;stroke-width:1.68;stroke-linecap:round;stroke-linejoin:bevel;stroke-miterlimit:10;stroke-dasharray:none;stroke-opacity:1"
         id="path800" />
    </g>
    <g
       id="g802"
       transform="matrix(2747.5422,0,0,-2747.5422,27692.856,137715.63)">
      <path
         d="M 0,0 9.011,-5.029 M 45.475,-4.715 54.119,0"
         style="fill:none;stroke:#ffffff;stroke-width:1.68;stroke-linecap:round;stroke-linejoin:round;stroke-miterlimit:10;stroke-dasharray:none;stroke-opacity:1"
         id="path804" />
    </g>
    <g
       id="g806"
       transform="matrix(2747.5422,0,0,-2747.5422,176388.47,137571.7)">
      <path
         d="M 0,0 0.629,0.419 1.153,0.995 1.572,1.676 1.781,2.41 1.886,3.196"
         style="fill:none;stroke:#ffffff;stroke-width:1.68;stroke-linecap:round;stroke-linejoin:bevel;stroke-miterlimit:10;stroke-dasharray:none;stroke-opacity:1"
         id="path808" />
    </g>
    <g
       id="g810"
       transform="matrix(2747.5422,0,0,-2747.5422,181714.56,128791.08)">
      <path
         d="M 0,0 V 38.14"
         style="fill:none;stroke:#ffffff;stroke-width:1.68;stroke-linecap:round;stroke-linejoin:round;stroke-miterlimit:10;stroke-dasharray:none;stroke-opacity:1"
         id="path812" />
    </g>
    <g
       id="g814"
       transform="matrix(2747.5422,0,0,-2747.5422,181570.33,23999)">
      <path
         d="M 0,0 -0.105,0.786 -0.367,1.572 -0.786,2.253 -1.31,2.829 -1.991,3.248"
         style="fill:none;stroke:#ffffff;stroke-width:1.68;stroke-linecap:round;stroke-linejoin:bevel;stroke-miterlimit:10;stroke-dasharray:none;stroke-opacity:1"
         id="path816" />
    </g>
    <g
       id="g818"
       transform="matrix(2747.5422,0,0,-2747.5422,176100.53,14930.448)">
      <path
         d="M 0,0 -9.064,4.663 M -46.942,1.31 v -47.623"
         style="fill:none;stroke:#ffffff;stroke-width:1.68;stroke-linecap:round;stroke-linejoin:round;stroke-miterlimit:10;stroke-dasharray:none;stroke-opacity:1"
         id="path820" />
    </g>
    <g
       id="g822"
       transform="matrix(2747.5422,0,0,-2747.5422,47125.675,142177.93)">
      <path
         d="M 0,0 0.052,-0.786 0.314,-1.519 0.681,-2.2 1.153,-2.777 1.729,-3.248 2.41,-3.615 3.143,-3.877 3.929,-3.929"
         style="fill:none;stroke:#ffffff;stroke-width:1.68;stroke-linecap:round;stroke-linejoin:bevel;stroke-miterlimit:10;stroke-dasharray:none;stroke-opacity:1"
         id="path824" />
    </g>
    <g
       id="g826"
       transform="matrix(2747.5422,0,0,-2747.5422,57921.588,153117.86)">
      <path
         d="M 0,0 H 32.063"
         style="fill:none;stroke:#ffffff;stroke-width:1.68;stroke-linecap:round;stroke-linejoin:round;stroke-miterlimit:10;stroke-dasharray:none;stroke-opacity:1"
         id="path828" />
    </g>
    <g
       id="g830"
       transform="matrix(2747.5422,0,0,-2747.5422,146016.03,152973.86)">
      <path
         d="M 0,0 0.733,0.052 1.415,0.262 2.043,0.629 2.567,1.1 3.039,1.624 3.405,2.253 3.615,2.934 3.667,3.667"
         style="fill:none;stroke:#ffffff;stroke-width:1.68;stroke-linecap:round;stroke-linejoin:bevel;stroke-miterlimit:10;stroke-dasharray:none;stroke-opacity:1"
         id="path832" />
    </g>
    <g
       id="g834"
       transform="matrix(2747.5422,0,0,-2747.5422,156236.07,142897.81)">
      <path
         d="M 0,0 V 47.885"
         style="fill:none;stroke:#ffffff;stroke-width:1.68;stroke-linecap:round;stroke-linejoin:round;stroke-miterlimit:10;stroke-dasharray:none;stroke-opacity:1"
         id="path836" />
    </g>
    <g
       id="g838"
       transform="matrix(2747.5422,0,0,-2747.5422,156092.09,11331.705)">
      <path
         d="M 0,0 -0.052,0.786 -0.314,1.519 -0.681,2.2 -1.153,2.777 -1.729,3.248 -2.41,3.615 -3.143,3.877 -3.929,3.929"
         style="fill:none;stroke:#ffffff;stroke-width:1.68;stroke-linecap:round;stroke-linejoin:bevel;stroke-miterlimit:10;stroke-dasharray:none;stroke-opacity:1"
         id="path840" />
    </g>
    <g
       id="g842"
       transform="matrix(2747.5422,0,0,-2747.5422,145296.17,391.85786)">
      <path
         d="M 0,0 H -31.801"
         style="fill:none;stroke:#ffffff;stroke-width:1.68;stroke-linecap:round;stroke-linejoin:round;stroke-miterlimit:10;stroke-dasharray:none;stroke-opacity:1"
         id="path844" />
    </g>
    <g
       id="g846"
       transform="matrix(2747.5422,0,0,-2747.5422,57921.588,535.86454)">
      <path
         d="M 0,0 -0.786,-0.052 -1.519,-0.314 -2.2,-0.681 -2.777,-1.153 -3.248,-1.729 -3.615,-2.41 -3.877,-3.143 -3.929,-3.929"
         style="fill:none;stroke:#ffffff;stroke-width:1.68;stroke-linecap:round;stroke-linejoin:bevel;stroke-miterlimit:10;stroke-dasharray:none;stroke-opacity:1"
         id="path848" />
    </g>
    <g
       id="g850"
       transform="matrix(2747.5422,0,0,-2747.5422,178979.39,135844.33)">
      <path
         d="M 0,0 0.471,0.576 0.838,1.205 1.048,1.886 1.1,2.62"
         style="fill:none;stroke:#ffffff;stroke-width:1.68;stroke-linecap:round;stroke-linejoin:bevel;stroke-miterlimit:10;stroke-dasharray:none;stroke-opacity:1"
         id="path852" />
    </g>
    <g
       id="g854"
       transform="matrix(2747.5422,0,0,-2747.5422,182146.21,128647.15)">
      <path
         d="M 0,0 V 38.036"
         style="fill:none;stroke:#ffffff;stroke-width:1.68;stroke-linecap:round;stroke-linejoin:round;stroke-miterlimit:10;stroke-dasharray:none;stroke-opacity:1"
         id="path856" />
    </g>
    <g
       id="g858"
       transform="matrix(2747.5422,0,0,-2747.5422,182002.23,24143.005)">
      <path
         d="M 0,0 -0.052,0.733 -0.314,1.467 -0.681,2.096 -1.153,2.672"
         style="fill:none;stroke:#ffffff;stroke-width:1.68;stroke-linecap:round;stroke-linejoin:bevel;stroke-miterlimit:10;stroke-dasharray:none;stroke-opacity:1"
         id="path860" />
    </g>
    <g
       id="g862"
       transform="matrix(2747.5422,0,0,-2747.5422,178835.43,16657.819)">
      <path
         d="M 0,0 -0.471,0.419 7.282,-3.51"
         style="fill:none;stroke:#ffffff;stroke-width:1.68;stroke-linecap:round;stroke-linejoin:round;stroke-miterlimit:10;stroke-dasharray:none;stroke-opacity:1"
         id="path864" />
    </g>
    <g
       id="g866"
       transform="matrix(2747.5422,0,0,-2747.5422,204313.93,35370.554)">
      <path
         d="M 0,0 -0.105,0.786 -0.367,1.572 -0.786,2.253 -1.31,2.829 -1.991,3.248"
         style="fill:none;stroke:#ffffff;stroke-width:1.68;stroke-linecap:round;stroke-linejoin:bevel;stroke-miterlimit:10;stroke-dasharray:none;stroke-opacity:1"
         id="path868" />
    </g>
    <g
       id="g870"
       transform="matrix(2747.5422,0,0,-2747.5422,204457.61,35370.554)">
      <path
         d="M 0,0 V -2.41 L -6.601,-7.859"
         style="fill:none;stroke:#ffffff;stroke-width:1.68;stroke-linecap:round;stroke-linejoin:round;stroke-miterlimit:10;stroke-dasharray:none;stroke-opacity:1"
         id="path872" />
    </g>
    <g
       id="g874"
       transform="matrix(2747.5422,0,0,-2747.5422,186320.81,56962.393)">
      <path
         d="M 0,0 -0.472,-0.524 -0.786,-1.153 -0.891,-1.886"
         style="fill:none;stroke:#ffffff;stroke-width:1.68;stroke-linecap:round;stroke-linejoin:bevel;stroke-miterlimit:10;stroke-dasharray:none;stroke-opacity:1"
         id="path876" />
    </g>
    <g
       id="g878"
       transform="matrix(2747.5422,0,0,-2747.5422,183729.62,62144.5)">
      <path
         d="M 0,0 V -10.373"
         style="fill:none;stroke:#ffffff;stroke-width:1.68;stroke-linecap:round;stroke-linejoin:round;stroke-miterlimit:10;stroke-dasharray:none;stroke-opacity:1"
         id="path880" />
    </g>
    <g
       id="g882"
       transform="matrix(2747.5422,0,0,-2747.5422,183873.58,90645.58)">
      <path
         d="M 0,0 0.105,-0.733 0.419,-1.415 0.943,-1.938"
         style="fill:none;stroke:#ffffff;stroke-width:1.68;stroke-linecap:round;stroke-linejoin:bevel;stroke-miterlimit:10;stroke-dasharray:none;stroke-opacity:1"
         id="path884" />
    </g>
    <g
       id="g886"
       transform="matrix(2747.5422,0,0,-2747.5422,186320.81,95971.46)">
      <path
         d="m 0,0 6.601,-5.134 v -2.41"
         style="fill:none;stroke:#ffffff;stroke-width:1.68;stroke-linecap:round;stroke-linejoin:round;stroke-miterlimit:10;stroke-dasharray:none;stroke-opacity:1"
         id="path888" />
    </g>
    <g
       id="g890"
       transform="matrix(2747.5422,0,0,-2747.5422,198987.82,125624.28)">
      <path
         d="m 0,0 0.681,0.472 0.524,0.576 0.419,0.681 0.21,0.733 0.104,0.786"
         style="fill:none;stroke:#ffffff;stroke-width:1.68;stroke-linecap:round;stroke-linejoin:bevel;stroke-miterlimit:10;stroke-dasharray:none;stroke-opacity:1"
         id="path892" />
    </g>
    <g
       id="g894"
       transform="matrix(2747.5422,0,0,-2747.5422,199131.79,125768.28)">
      <path
         d="m 0,0 -7.806,-4.191 0.524,0.524"
         style="fill:none;stroke:#ffffff;stroke-width:1.68;stroke-linecap:round;stroke-linejoin:round;stroke-miterlimit:10;stroke-dasharray:none;stroke-opacity:1"
         id="path896" />
    </g>
    <g
       id="g898"
       transform="matrix(2747.5422,0,0,-2747.5422,79657.119,27597.433)">
      <path
         d="m 0,0 -0.052,0.21 -0.21,0.157 H -0.471 L -0.681,0.21 -0.733,0 l 0.052,-0.21 0.21,-0.157 h 0.209 l 0.21,0.157 z"
         style="fill:none;stroke:#ffffff;stroke-width:1.312;stroke-linecap:round;stroke-linejoin:round;stroke-miterlimit:10;stroke-dasharray:none;stroke-opacity:1"
         id="path900" />
    </g>
    <g
       id="g902"
       transform="matrix(2747.5422,0,0,-2747.5422,93188.215,23279.127)">
      <path
         d="m 0,0 -0.052,0.21 -0.21,0.157 H -0.471 L -0.681,0.21 -0.733,0 l 0.052,-0.21 0.21,-0.157 h 0.209 l 0.21,0.157 z"
         style="fill:none;stroke:#ffffff;stroke-width:1.312;stroke-linecap:round;stroke-linejoin:round;stroke-miterlimit:10;stroke-dasharray:none;stroke-opacity:1"
         id="path904" />
    </g>
    <g
       id="g906"
       transform="matrix(2747.5422,0,0,-2747.5422,112044.87,23423.131)">
      <path
         d="m 0,0 -0.052,0.21 -0.21,0.157 h -0.21 L -0.681,0.21 -0.733,0 l 0.052,-0.21 0.209,-0.157 h 0.21 l 0.21,0.157 z"
         style="fill:none;stroke:#ffffff;stroke-width:1.312;stroke-linecap:round;stroke-linejoin:round;stroke-miterlimit:10;stroke-dasharray:none;stroke-opacity:1"
         id="path908" />
    </g>
    <g
       id="g910"
       transform="matrix(2747.5422,0,0,-2747.5422,125719.66,27597.433)">
      <path
         d="m 0,0 -0.052,0.21 -0.21,0.157 h -0.21 L -0.681,0.21 -0.733,0 l 0.052,-0.21 0.209,-0.157 h 0.21 l 0.21,0.157 z"
         style="fill:none;stroke:#ffffff;stroke-width:1.312;stroke-linecap:round;stroke-linejoin:round;stroke-miterlimit:10;stroke-dasharray:none;stroke-opacity:1"
         id="path912" />
    </g>
  </g>
</svg>
