<?xml version="1.0" encoding="UTF-8" standalone="no"?>
<!DOCTYPE svg PUBLIC "-//W3C//DTD SVG 1.1//EN" "http://www.w3.org/Graphics/SVG/1.1/DTD/svg11.dtd">
<svg xmlns="http://www.w3.org/2000/svg" version="1.1" viewBox="0.00 0.00 1079.00 774.00">
<g stroke-width="2.00" fill="none" stroke-linecap="butt">
<path stroke="#fdc948" vector-effect="non-scaling-stroke" d="
  M 472.56 71.76
  Q 474.75 76.18 479.83 82.93
  Q 520.83 137.43 561.78 191.95"
/>
<path stroke="#e4b631" vector-effect="non-scaling-stroke" d="
  M 561.78 191.95
  Q 561.83 191.99 561.89 192.03"
/>
<path stroke="#ffda28" vector-effect="non-scaling-stroke" d="
  M 561.89 192.03
  L 561.17 192.93"
/>
<path stroke="#ffe651" vector-effect="non-scaling-stroke" d="
  M 561.17 192.93
  Q 559.99 189.34 559.14 190.53"
/>
<path stroke="#ffec73" vector-effect="non-scaling-stroke" d="
  M 559.14 190.53
  Q 479.19 149.65 399.29 108.75
  C 397.97 108.08 396.79 106.97 395.76 105.97"
/>
<path stroke="#e3a321" vector-effect="non-scaling-stroke" d="
  M 762.79 235.85
  Q 760.63 236.95 758.70 239.71
  Q 710.35 308.70 661.88 377.95"
/>
<path stroke="#e4ae09" vector-effect="non-scaling-stroke" d="
  M 661.88 377.95
  L 561.89 192.03"
/>
<path stroke="#fec718" vector-effect="non-scaling-stroke" d="
  M 661.88 377.95
  Q 663.11 381.20 666.41 387.33
  Q 711.79 471.45 757.09 555.63
  Q 757.34 556.09 757.86 556.17
  Q 759.13 556.38 759.98 556.97"
/>
<path stroke="#eab908" vector-effect="non-scaling-stroke" d="
  M 758.62 560.29
  Q 756.19 558.04 753.57 556.43
  Q 674.63 508.13 595.75 459.71"
/>
<path stroke="#e29d29" vector-effect="non-scaling-stroke" d="
  M 757.30 231.47
  Q 757.34 233.30 754.99 232.79
  Q 659.25 212.25 563.50 191.74
  Q 562.79 191.58 561.78 191.95"
/>
<path stroke="#ffde2a" vector-effect="non-scaling-stroke" d="
  M 561.17 192.93
  Q 561.89 194.27 561.99 195.25
  Q 563.02 204.51 564.22 213.75
  Q 579.91 335.41 595.64 457.07
  Q 595.81 458.37 595.75 459.71"
/>
<path stroke="#eac531" vector-effect="non-scaling-stroke" d="
  M 595.75 459.71
  Q 595.24 459.97 595.55 460.03"
/>
<path stroke="#fed342" vector-effect="non-scaling-stroke" d="
  M 595.55 460.03
  L 594.88 459.87
  Q 594.49 459.78 594.08 459.83
  L 281.51 495.28"
/>
<path stroke="#ffe651" vector-effect="non-scaling-stroke" d="
  M 281.51 495.28
  Q 281.36 495.00 280.78 494.98
  Q 280.32 494.97 280.26 494.50
  Q 280.17 493.68 280.39 492.97"
/>
<path stroke="#fff175" vector-effect="non-scaling-stroke" d="
  M 280.39 492.97
  L 280.49 493.25
  A 0.40 0.39 -33.6 0 0 281.15 493.38
  L 558.67 193.75
  Q 559.02 193.37 558.56 193.13
  Q 558.31 192.99 558.02 193.00"
/>
<path stroke="#ffde2a" vector-effect="non-scaling-stroke" d="
  M 558.02 193.00
  Q 558.32 192.47 558.24 192.00
  Q 558.16 191.58 557.75 191.81"
/>
<path stroke="#fff175" vector-effect="non-scaling-stroke" d="
  M 559.14 190.53
  Q 559.18 190.98 557.75 191.81"
/>
<path stroke="#ffe54c" vector-effect="non-scaling-stroke" d="
  M 557.75 191.81
  L 190.39 209.91
  Q 189.92 209.93 189.64 209.56
  L 189.22 209.01"
/>
<path stroke="#c4940c" vector-effect="non-scaling-stroke" d="
  M 756.88 561.75
  C 753.55 559.81 751.27 561.20 748.08 561.68
  Q 639.28 578.12 530.50 594.75
  Q 529.72 594.87 528.11 594.65"
/>
<path stroke="#ffec73" vector-effect="non-scaling-stroke" d="
  M 280.39 492.97
  L 335.09 331.14"
/>
<path stroke="#fece40" vector-effect="non-scaling-stroke" d="
  M 281.51 495.28
  L 280.29 495.63"
/>
<path stroke="#fbc135" vector-effect="non-scaling-stroke" d="
  M 280.29 495.63
  Q 279.31 495.40 277.30 496.80
  Q 235.20 526.18 193.17 555.66
  Q 190.48 557.54 189.01 558.05"
/>
<path stroke="#e9ad20" vector-effect="non-scaling-stroke" d="
  M 595.55 460.03
  L 528.11 594.65"
/>
<path stroke="#d8a21c" vector-effect="non-scaling-stroke" d="
  M 528.11 594.65
  C 527.63 595.36 526.88 595.85 526.49 596.62
  Q 497.24 654.91 467.88 713.16
  Q 466.69 715.52 466.94 717.32"
/>
<path stroke="#faae25" vector-effect="non-scaling-stroke" d="
  M 461.22 715.27
  L 461.49 713.38
  Q 461.56 712.88 461.23 712.48
  L 280.29 495.63"
/>
<path stroke="#ffe54c" vector-effect="non-scaling-stroke" d="
  M 558.02 193.00
  L 534.65 207.73
  Q 534.24 207.99 533.76 207.99
  Q 533.17 207.99 532.84 208.56
  A 1.04 1.00 -1.9 0 1 532.48 208.93
  L 335.09 331.14"
/>
<path stroke="#ffda28" vector-effect="non-scaling-stroke" d="
  M 335.09 331.14
  L 188.73 212.04
  A 0.90 0.77 66.3 0 0 188.36 211.86
  L 186.34 211.44"
/>
</g>
<path fill="#ffe14f" d="
  M 472.56 71.76
  Q 474.75 76.18 479.83 82.93
  Q 520.83 137.43 561.78 191.95
  Q 561.83 191.99 561.89 192.03
  L 561.17 192.93
  Q 559.99 189.34 559.14 190.53
  Q 479.19 149.65 399.29 108.75
  C 397.97 108.08 396.79 106.97 395.76 105.97
  Q 429.59 89.01 463.59 72.38
  C 465.70 71.35 468.20 69.67 470.39 70.41
  Q 472.09 70.98 472.56 71.76
  Z"
/>
<path fill="#fbb040" d="
  M 472.56 71.76
  Q 473.90 72.00 475.56 72.94
  Q 616.42 152.20 757.30 231.47
  Q 757.34 233.30 754.99 232.79
  Q 659.25 212.25 563.50 191.74
  Q 562.79 191.58 561.78 191.95
  Q 520.83 137.43 479.83 82.93
  Q 474.75 76.18 472.56 71.76
  Z"
/>
<path fill="#fff797" d="
  M 395.76 105.97
  C 396.79 106.97 397.97 108.08 399.29 108.75
  Q 479.19 149.65 559.14 190.53
  Q 559.18 190.98 557.75 191.81
  L 190.39 209.91
  Q 189.92 209.93 189.64 209.56
  L 189.22 209.01
  Q 195.23 205.10 201.67 201.91
  Q 298.70 153.91 395.76 105.97
  Z"
/>
<path fill="#ffea53" d="
  M 559.14 190.53
  Q 559.99 189.34 561.17 192.93
  Q 561.89 194.27 561.99 195.25
  Q 563.02 204.51 564.22 213.75
  Q 579.91 335.41 595.64 457.07
  Q 595.81 458.37 595.75 459.71
  Q 595.24 459.97 595.55 460.03
  L 594.88 459.87
  Q 594.49 459.78 594.08 459.83
  L 281.51 495.28
  Q 281.36 495.00 280.78 494.98
  Q 280.32 494.97 280.26 494.50
  Q 280.17 493.68 280.39 492.97
  L 280.49 493.25
  A 0.40 0.39 -33.6 0 0 281.15 493.38
  L 558.67 193.75
  Q 559.02 193.37 558.56 193.13
  Q 558.31 192.99 558.02 193.00
  Q 558.32 192.47 558.24 192.00
  Q 558.16 191.58 557.75 191.81
  Q 559.18 190.98 559.14 190.53
  Z"
/>
<path fill="#ffd200" d="
  M 557.75 191.81
  Q 558.16 191.58 558.24 192.00
  Q 558.32 192.47 558.02 193.00
  L 534.65 207.73
  Q 534.24 207.99 533.76 207.99
  Q 533.17 207.99 532.84 208.56
  A 1.04 1.00 -1.9 0 1 532.48 208.93
  L 335.09 331.14
  L 188.73 212.04
  A 0.90 0.77 66.3 0 0 188.36 211.86
  L 186.34 211.44
  Q 187.44 209.98 189.22 209.01
  L 189.64 209.56
  Q 189.92 209.93 190.39 209.91
  L 557.75 191.81
  Z"
/>
<path fill="#c88a12" d="
  M 561.78 191.95
  Q 562.79 191.58 563.50 191.74
  Q 659.25 212.25 754.99 232.79
  Q 757.34 233.30 757.30 231.47
  Q 760.81 233.36 762.79 235.85
  Q 760.63 236.95 758.70 239.71
  Q 710.35 308.70 661.88 377.95
  L 561.89 192.03
  Q 561.83 191.99 561.78 191.95
  Z"
/>
<path fill="#ffd200" d="
  M 561.89 192.03
  L 661.88 377.95
  Q 663.11 381.20 666.41 387.33
  Q 711.79 471.45 757.09 555.63
  Q 757.34 556.09 757.86 556.17
  Q 759.13 556.38 759.98 556.97
  Q 760.01 559.01 758.62 560.29
  Q 756.19 558.04 753.57 556.43
  Q 674.63 508.13 595.75 459.71
  Q 595.81 458.37 595.64 457.07
  Q 579.91 335.41 564.22 213.75
  Q 563.02 204.51 561.99 195.25
  Q 561.89 194.27 561.17 192.93
  L 561.89 192.03
  Z"
/>
<path fill="#fff797" d="
  M 558.02 193.00
  Q 558.31 192.99 558.56 193.13
  Q 559.02 193.37 558.67 193.75
  L 281.15 493.38
  A 0.40 0.39 -33.6 0 1 280.49 493.25
  L 280.39 492.97
  L 335.09 331.14
  L 532.48 208.93
  A 1.04 1.00 -1.9 0 0 532.84 208.56
  Q 533.17 207.99 533.76 207.99
  Q 534.24 207.99 534.65 207.73
  L 558.02 193.00
  Z"
/>
<path fill="#ffe14f" d="
  M 186.34 211.44
  L 188.36 211.86
  A 0.90 0.77 66.3 0 1 188.73 212.04
  L 335.09 331.14
  L 280.39 492.97
  Q 280.17 493.68 280.26 494.50
  Q 280.32 494.97 280.78 494.98
  Q 281.36 495.00 281.51 495.28
  L 280.29 495.63
  Q 279.31 495.40 277.30 496.80
  Q 235.20 526.18 193.17 555.66
  Q 190.48 557.54 189.01 558.05
  Q 187.30 391.49 185.84 224.94
  Q 185.76 216.35 186.34 211.44
  Z"
/>
<path fill="#fdbb30" d="
  M 762.79 235.85
  L 759.98 556.97
  Q 759.13 556.38 757.86 556.17
  Q 757.34 556.09 757.09 555.63
  Q 711.79 471.45 666.41 387.33
  Q 663.11 381.20 661.88 377.95
  Q 710.35 308.70 758.70 239.71
  Q 760.63 236.95 762.79 235.85
  Z"
/>
<path fill="#fdbb30" d="
  M 595.55 460.03
  L 528.11 594.65
  C 527.63 595.36 526.88 595.85 526.49 596.62
  Q 497.24 654.91 467.88 713.16
  Q 466.69 715.52 466.94 717.32
  Q 463.52 716.84 461.22 715.27
  L 461.49 713.38
  Q 461.56 712.88 461.23 712.48
  L 280.29 495.63
  L 281.51 495.28
  L 594.08 459.83
  Q 594.49 459.78 594.88 459.87
  L 595.55 460.03
  Z"
/>
<path fill="#d59f0f" d="
  M 595.75 459.71
  Q 674.63 508.13 753.57 556.43
  Q 756.19 558.04 758.62 560.29
  L 756.88 561.75
  C 753.55 559.81 751.27 561.20 748.08 561.68
  Q 639.28 578.12 530.50 594.75
  Q 529.72 594.87 528.11 594.65
  L 595.55 460.03
  Q 595.24 459.97 595.75 459.71
  Z"
/>
<path fill="#f6a01a" d="
  M 280.29 495.63
  L 461.23 712.48
  Q 461.56 712.88 461.49 713.38
  L 461.22 715.27
  Q 326.67 637.88 192.17 560.43
  C 191.13 559.83 190.19 558.82 189.01 558.05
  Q 190.48 557.54 193.17 555.66
  Q 235.20 526.18 277.30 496.80
  Q 279.31 495.40 280.29 495.63
  Z"
/>
<path fill="#b38808" d="
  M 756.88 561.75
  L 466.94 717.32
  Q 466.69 715.52 467.88 713.16
  Q 497.24 654.91 526.49 596.62
  C 526.88 595.85 527.63 595.36 528.11 594.65
  Q 529.72 594.87 530.50 594.75
  Q 639.28 578.12 748.08 561.68
  C 751.27 561.20 753.55 559.81 756.88 561.75
  Z"
/>
</svg>
