<?xml version="1.0" encoding="UTF-8" standalone="no"?>
<svg
   version="1.1"
   viewBox="0 0 577.41351 647.23022"
   id="svg41"
   sodipodi:docname="another-crystal_no_background.svg"
   width="577.41351"
   height="647.23022"
   xmlns:inkscape="http://www.inkscape.org/namespaces/inkscape"
   xmlns:sodipodi="http://sodipodi.sourceforge.net/DTD/sodipodi-0.dtd"
   xmlns="http://www.w3.org/2000/svg"
   xmlns:svg="http://www.w3.org/2000/svg">
  <defs
     id="defs41" />
  <sodipodi:namedview
     id="namedview41"
     pagecolor="#505050"
     bordercolor="#eeeeee"
     borderopacity="1"
     inkscape:showpageshadow="0"
     inkscape:pageopacity="0"
     inkscape:pagecheckerboard="0"
     inkscape:deskcolor="#d1d1d1"
     showgrid="false" />
  <g
     stroke-width="2"
     fill="none"
     stroke-linecap="butt"
     id="g27"
     transform="translate(-185.8303,-70.227317)">
    <path
       stroke="#fdc948"
       vector-effect="non-scaling-stroke"
       d="m 472.56,71.76 q 2.19,4.42 7.27,11.17 41,54.5 81.95,109.02"
       id="path1" />
    <path
       stroke="#e4b631"
       vector-effect="non-scaling-stroke"
       d="m 561.78,191.95 q 0.05,0.04 0.11,0.08"
       id="path2" />
    <path
       stroke="#ffda28"
       vector-effect="non-scaling-stroke"
       d="m 561.89,192.03 -0.72,0.9"
       id="path3" />
    <path
       stroke="#ffe651"
       vector-effect="non-scaling-stroke"
       d="m 561.17,192.93 q -1.18,-3.59 -2.03,-2.4"
       id="path4" />
    <path
       stroke="#ffec73"
       vector-effect="non-scaling-stroke"
       d="M 559.14,190.53 Q 479.19,149.65 399.29,108.75 c -1.32,-0.67 -2.5,-1.78 -3.53,-2.78"
       id="path5" />
    <path
       stroke="#e3a321"
       vector-effect="non-scaling-stroke"
       d="m 762.79,235.85 q -2.16,1.1 -4.09,3.86 -48.35,68.99 -96.82,138.24"
       id="path6" />
    <path
       stroke="#e4ae09"
       vector-effect="non-scaling-stroke"
       d="M 661.88,377.95 561.89,192.03"
       id="path7" />
    <path
       stroke="#fec718"
       vector-effect="non-scaling-stroke"
       d="m 661.88,377.95 q 1.23,3.25 4.53,9.38 45.38,84.12 90.68,168.3 0.25,0.46 0.77,0.54 1.27,0.21 2.12,0.8"
       id="path8" />
    <path
       stroke="#eab908"
       vector-effect="non-scaling-stroke"
       d="m 758.62,560.29 q -2.43,-2.25 -5.05,-3.86 -78.94,-48.3 -157.82,-96.72"
       id="path9" />
    <path
       stroke="#e29d29"
       vector-effect="non-scaling-stroke"
       d="m 757.3,231.47 q 0.04,1.83 -2.31,1.32 -95.74,-20.54 -191.49,-41.05 -0.71,-0.16 -1.72,0.21"
       id="path10" />
    <path
       stroke="#ffde2a"
       vector-effect="non-scaling-stroke"
       d="m 561.17,192.93 q 0.72,1.34 0.82,2.32 1.03,9.26 2.23,18.5 15.69,121.66 31.42,243.32 0.17,1.3 0.11,2.64"
       id="path11" />
    <path
       stroke="#eac531"
       vector-effect="non-scaling-stroke"
       d="m 595.75,459.71 q -0.51,0.26 -0.2,0.32"
       id="path12" />
    <path
       stroke="#fed342"
       vector-effect="non-scaling-stroke"
       d="m 595.55,460.03 -0.67,-0.16 q -0.39,-0.09 -0.8,-0.04 l -312.57,35.45"
       id="path13" />
    <path
       stroke="#ffe651"
       vector-effect="non-scaling-stroke"
       d="m 281.51,495.28 q -0.15,-0.28 -0.73,-0.3 -0.46,-0.01 -0.52,-0.48 -0.09,-0.82 0.13,-1.53"
       id="path14" />
    <path
       stroke="#fff175"
       vector-effect="non-scaling-stroke"
       d="m 280.39,492.97 0.1,0.28 a 0.4,0.39 -33.6 0 0 0.66,0.13 L 558.67,193.75 q 0.35,-0.38 -0.11,-0.62 -0.25,-0.14 -0.54,-0.13"
       id="path15" />
    <path
       stroke="#ffde2a"
       vector-effect="non-scaling-stroke"
       d="m 558.02,193 q 0.3,-0.53 0.22,-1 -0.08,-0.42 -0.49,-0.19"
       id="path16" />
    <path
       stroke="#fff175"
       vector-effect="non-scaling-stroke"
       d="m 559.14,190.53 q 0.04,0.45 -1.39,1.28"
       id="path17" />
    <path
       stroke="#ffe54c"
       vector-effect="non-scaling-stroke"
       d="m 557.75,191.81 -367.36,18.1 q -0.47,0.02 -0.75,-0.35 l -0.42,-0.55"
       id="path18" />
    <path
       stroke="#c4940c"
       vector-effect="non-scaling-stroke"
       d="m 756.88,561.75 c -3.33,-1.94 -5.61,-0.55 -8.8,-0.07 q -108.8,16.44 -217.58,33.07 -0.78,0.12 -2.39,-0.1"
       id="path19" />
    <path
       stroke="#ffec73"
       vector-effect="non-scaling-stroke"
       d="m 280.39,492.97 54.7,-161.83"
       id="path20" />
    <path
       stroke="#fece40"
       vector-effect="non-scaling-stroke"
       d="m 281.51,495.28 -1.22,0.35"
       id="path21" />
    <path
       stroke="#fbc135"
       vector-effect="non-scaling-stroke"
       d="m 280.29,495.63 q -0.98,-0.23 -2.99,1.17 -42.1,29.38 -84.13,58.86 -2.69,1.88 -4.16,2.39"
       id="path22" />
    <path
       stroke="#e9ad20"
       vector-effect="non-scaling-stroke"
       d="M 595.55,460.03 528.11,594.65"
       id="path23" />
    <path
       stroke="#d8a21c"
       vector-effect="non-scaling-stroke"
       d="m 528.11,594.65 c -0.48,0.71 -1.23,1.2 -1.62,1.97 q -29.25,58.29 -58.61,116.54 -1.19,2.36 -0.94,4.16"
       id="path24" />
    <path
       stroke="#faae25"
       vector-effect="non-scaling-stroke"
       d="m 461.22,715.27 0.27,-1.89 q 0.07,-0.5 -0.26,-0.9 L 280.29,495.63"
       id="path25" />
    <path
       stroke="#ffe54c"
       vector-effect="non-scaling-stroke"
       d="m 558.02,193 -23.37,14.73 q -0.41,0.26 -0.89,0.26 -0.59,0 -0.92,0.57 a 1.04,1 -1.9 0 1 -0.36,0.37 L 335.09,331.14"
       id="path26" />
    <path
       stroke="#ffda28"
       vector-effect="non-scaling-stroke"
       d="M 335.09,331.14 188.73,212.04 a 0.9,0.77 66.3 0 0 -0.37,-0.18 l -2.02,-0.42"
       id="path27" />
  </g>
  <path
     fill="#ffe14f"
     d="m 286.7297,1.5326828 q 2.19,4.42 7.27,11.1700002 41,54.5 81.95,109.019997 0.05,0.04 0.11,0.08 l -0.72,0.9 q -1.18,-3.59 -2.03,-2.4 -79.95,-40.879997 -159.85,-81.779997 c -1.32,-0.67 -2.5,-1.78 -3.53,-2.78 q 33.83,-16.96 67.83,-33.5900002 c 2.11,-1.03 4.61,-2.71000002 6.8,-1.97000002 q 1.7,0.57 2.17,1.35000002 z"
     id="path28" />
  <path
     fill="#fbb040"
     d="m 286.7297,1.5326828 q 1.34,0.24 3,1.18 140.86,79.2600002 281.74,158.5299972 0.04,1.83 -2.31,1.32 -95.74,-20.54 -191.49,-41.05 -0.71,-0.16 -1.72,0.21 -40.95,-54.519997 -81.95,-109.019997 -5.08,-6.7500002 -7.27,-11.1700002 z"
     id="path29" />
  <path
     fill="#fff797"
     d="m 209.9297,35.742683 c 1.03,1 2.21,2.11 3.53,2.78 q 79.9,40.9 159.85,81.779997 0.04,0.45 -1.39,1.28 l -367.360003,18.1 q -0.47,0.02 -0.75,-0.35 l -0.42,-0.55 q 6.01,-3.91 12.45,-7.1 Q 112.8697,83.682683 209.9297,35.742683 Z"
     id="path30" />
  <path
     fill="#ffea53"
     d="m 373.3097,120.30268 q 0.85,-1.19 2.03,2.4 0.72,1.34 0.82,2.32 1.03,9.26 2.23,18.5 15.69,121.66 31.42,243.32 0.17,1.3 0.11,2.64 -0.51,0.26 -0.2,0.32 l -0.67,-0.16 q -0.39,-0.09 -0.8,-0.04 l -312.570003,35.45 q -0.15,-0.28 -0.73,-0.3 -0.46,-0.01 -0.52,-0.48 -0.09,-0.82 0.13,-1.53 l 0.1,0.28 a 0.39,0.4 56.4 0 0 0.66,0.13 l 277.520003,-299.63 q 0.35,-0.38 -0.11,-0.62 -0.25,-0.14 -0.54,-0.13 0.3,-0.53 0.22,-1 -0.08,-0.42 -0.49,-0.19 1.43,-0.83 1.39,-1.28 z"
     id="path31" />
  <path
     fill="#ffd200"
     d="m 371.9197,121.58268 q 0.41,-0.23 0.49,0.19 0.08,0.47 -0.22,1 l -23.37,14.73 q -0.41,0.26 -0.89,0.26 -0.59,0 -0.92,0.57 a 1,1.04 88.1 0 1 -0.36,0.37 l -197.39,122.21 -146.360003,-119.1 a 0.9,0.77 66.3 0 0 -0.37,-0.18 l -2.02000003,-0.42 q 1.10000003,-1.46 2.88000003,-2.43 l 0.42,0.55 q 0.28,0.37 0.75,0.35 z"
     id="path32" />
  <path
     fill="#c88a12"
     d="m 375.9497,121.72268 q 1.01,-0.37 1.72,-0.21 95.75,20.51 191.49,41.05 2.35,0.51 2.31,-1.32 3.51,1.89 5.49,4.38 -2.16,1.1 -4.09,3.86 -48.35,68.99 -96.82,138.24 l -99.99,-185.92 q -0.06,-0.04 -0.11,-0.08 z"
     id="path33" />
  <path
     fill="#ffd200"
     d="m 376.0597,121.80268 99.99,185.92 q 1.23,3.25 4.53,9.38 45.38,84.12 90.68,168.3 0.25,0.46 0.77,0.54 1.27,0.21 2.12,0.8 0.03,2.04 -1.36,3.32 -2.43,-2.25 -5.05,-3.86 -78.94,-48.3 -157.82,-96.72 0.06,-1.34 -0.11,-2.64 -15.73,-121.66 -31.42,-243.32 -1.2,-9.24 -2.23,-18.5 -0.1,-0.98 -0.82,-2.32 z"
     id="path34" />
  <path
     fill="#fff797"
     d="m 372.1897,122.77268 q 0.29,-0.01 0.54,0.13 0.46,0.24 0.11,0.62 l -277.520003,299.63 a 0.39,0.4 56.4 0 1 -0.66,-0.13 l -0.1,-0.28 54.700003,-161.83 197.39,-122.21 a 1,1.04 88.1 0 0 0.36,-0.37 q 0.33,-0.57 0.92,-0.57 0.48,0 0.89,-0.26 z"
     id="path35" />
  <path
     fill="#ffe14f"
     d="m 0.50969697,141.21268 2.02000003,0.42 a 0.9,0.77 66.3 0 1 0.37,0.18 l 146.360003,119.1 -54.700003,161.83 q -0.22,0.71 -0.13,1.53 0.06,0.47 0.52,0.48 0.58,0.02 0.73,0.3 l -1.22,0.35 q -0.98,-0.23 -2.99,1.17 -42.1,29.38 -84.13,58.86 -2.69,1.88 -4.16,2.39 -1.71,-166.56 -3.17000003,-333.11 -0.08,-8.59 0.5,-13.5 z"
     id="path36" />
  <path
     fill="#fdbb30"
     d="m 576.9597,165.62268 -2.81,321.12 q -0.85,-0.59 -2.12,-0.8 -0.52,-0.08 -0.77,-0.54 -45.3,-84.18 -90.68,-168.3 -3.3,-6.13 -4.53,-9.38 48.47,-69.25 96.82,-138.24 1.93,-2.76 4.09,-3.86 z"
     id="path37" />
  <path
     fill="#fdbb30"
     d="m 409.7197,389.80268 -67.44,134.62 c -0.48,0.71 -1.23,1.2 -1.62,1.97 q -29.25,58.29 -58.61,116.54 -1.19,2.36 -0.94,4.16 -3.42,-0.48 -5.72,-2.05 l 0.27,-1.89 q 0.07,-0.5 -0.26,-0.9 l -180.940003,-216.85 1.22,-0.35 312.570003,-35.45 q 0.41,-0.05 0.8,0.04 z"
     id="path38" />
  <path
     fill="#d59f0f"
     d="m 409.9197,389.48268 q 78.88,48.42 157.82,96.72 2.62,1.61 5.05,3.86 l -1.74,1.46 c -3.33,-1.94 -5.61,-0.55 -8.8,-0.07 q -108.8,16.44 -217.58,33.07 -0.78,0.12 -2.39,-0.1 l 67.44,-134.62 q -0.31,-0.06 0.2,-0.32 z"
     id="path39" />
  <path
     fill="#f6a01a"
     d="m 94.459697,425.40268 180.940003,216.85 q 0.33,0.4 0.26,0.9 l -0.27,1.89 q -134.55,-77.39 -269.050003,-154.84 c -1.04,-0.6 -1.98,-1.61 -3.16,-2.38 q 1.47,-0.51 4.16,-2.39 42.03,-29.48 84.13,-58.86 2.01,-1.4 2.99,-1.17 z"
     id="path40" />
  <path
     fill="#b38808"
     d="m 571.0497,491.52268 -289.94,155.57 q -0.25,-1.8 0.94,-4.16 29.36,-58.25 58.61,-116.54 c 0.39,-0.77 1.14,-1.26 1.62,-1.97 q 1.61,0.22 2.39,0.1 108.78,-16.63 217.58,-33.07 c 3.19,-0.48 5.47,-1.87 8.8,0.07 z"
     id="path41" />
</svg>
