<?xml version="1.0" encoding="UTF-8" standalone="no"?>
<!DOCTYPE svg PUBLIC "-//W3C//DTD SVG 1.1//EN" "http://www.w3.org/Graphics/SVG/1.1/DTD/svg11.dtd">
<svg xmlns="http://www.w3.org/2000/svg" version="1.1" viewBox="0.00 0.00 1079.00 774.00">
<g stroke-width="2.00" fill="none" stroke-linecap="butt">
<path stroke="#ffda28" vector-effect="non-scaling-stroke" d="
  M 626.04 1.64
  C 623.31 2.81 623.90 4.69 623.90 7.50
  Q 624.05 99.22 624.31 190.94
  Q 624.68 191.36 624.43 192.30"
/>
<path stroke="#ffe54c" vector-effect="non-scaling-stroke" d="
  M 624.43 192.30
  L 376.04 279.15"
/>
<path stroke="#ffde2a" vector-effect="non-scaling-stroke" d="
  M 376.04 279.15
  Q 375.44 278.96 375.40 278.44"
/>
<path stroke="#ffe54c" vector-effect="non-scaling-stroke" d="
  M 375.40 278.44
  L 621.96 2.37"
/>
<path stroke="#fff175" vector-effect="non-scaling-stroke" d="
  M 784.24 251.37
  Q 784.32 252.42 781.81 252.58
  Q 595.81 265.08 409.81 277.52
  Q 393.33 278.62 376.87 279.91
  Q 376.52 279.94 376.28 279.80
  Q 375.82 279.52 376.04 279.15"
/>
<path stroke="#fff175" vector-effect="non-scaling-stroke" d="
  M 375.40 278.44
  Q 373.73 279.88 373.44 278.77"
/>
<path stroke="#ffec73" vector-effect="non-scaling-stroke" d="
  M 373.44 278.77
  Q 374.05 278.03 374.26 277.05
  Q 392.94 188.54 411.52 100.00
  Q 411.61 99.54 410.95 98.01"
/>
<path stroke="#fbc135" vector-effect="non-scaling-stroke" d="
  M 893.10 221.73
  L 786.42 252.51"
/>
<path stroke="#ffe651" vector-effect="non-scaling-stroke" d="
  M 786.42 252.51
  Q 786.37 251.83 784.24 251.37"
/>
<path stroke="#ffec73" vector-effect="non-scaling-stroke" d="
  M 784.24 251.37
  L 624.43 192.30"
/>
<path stroke="#fed342" vector-effect="non-scaling-stroke" d="
  M 786.42 253.21
  L 561.00 475.73"
/>
<path stroke="#eac531" vector-effect="non-scaling-stroke" d="
  M 561.00 475.73
  Q 560.54 475.68 560.24 475.87"
/>
<path stroke="#ffde2a" vector-effect="non-scaling-stroke" d="
  M 560.24 475.87
  Q 554.87 470.48 549.69 465.06
  Q 464.83 376.17 379.93 287.32
  Q 376.70 283.94 374.43 282.29"
/>
<path stroke="#e4ba33" vector-effect="non-scaling-stroke" d="
  M 374.43 282.29
  L 373.23 280.61"
/>
<path stroke="#ffe651" vector-effect="non-scaling-stroke" d="
  M 373.44 278.77
  Q 373.32 278.75 373.21 278.72"
/>
<path stroke="#fdc948" vector-effect="non-scaling-stroke" d="
  M 373.21 278.72
  L 336.68 135.55
  Q 336.61 135.25 336.31 135.33
  Q 335.96 135.42 335.87 135.24"
/>
<path stroke="#faae25" vector-effect="non-scaling-stroke" d="
  M 843.01 535.07
  Q 841.68 534.56 842.01 532.76
  C 842.42 530.48 841.22 528.62 840.92 527.11
  Q 814.78 394.50 788.65 261.90
  C 788.05 258.84 787.71 255.99 786.42 253.21"
/>
<path stroke="#fbc537" vector-effect="non-scaling-stroke" d="
  M 786.42 253.21
  Q 786.42 252.86 786.42 252.51"
/>
<path stroke="#c4940c" vector-effect="non-scaling-stroke" d="
  M 708.01 507.98
  L 707.73 508.60
  Q 707.52 509.05 707.16 509.37
  Q 622.62 586.52 538.14 663.74
  C 537.32 664.49 536.36 664.43 536.26 666.00"
/>
<path stroke="#e4ae09" vector-effect="non-scaling-stroke" d="
  M 374.43 282.29
  L 455.09 475.49"
/>
<path stroke="#e3a321" vector-effect="non-scaling-stroke" d="
  M 455.09 475.49
  Q 454.62 475.83 453.50 475.76
  Q 368.37 469.88 282.54 463.98
  A 0.57 0.57 0.0 0 0 282.04 464.89
  Q 282.15 465.04 281.91 465.56"
/>
<path stroke="#fdcd4a" vector-effect="non-scaling-stroke" d="
  M 373.21 278.72
  Q 373.57 280.49 373.23 280.61"
/>
<path stroke="#e29d29" vector-effect="non-scaling-stroke" d="
  M 373.23 280.61
  L 282.47 459.82
  A 0.97 0.97 0.0 0 1 281.74 460.34
  Q 281.31 460.40 281.20 460.26"
/>
<path stroke="#eab908" vector-effect="non-scaling-stroke" d="
  M 560.24 475.87
  L 535.85 663.97"
/>
<path stroke="#fec718" vector-effect="non-scaling-stroke" d="
  M 535.85 663.97
  Q 534.73 664.58 534.49 664.01
  Q 495.37 570.50 456.18 477.03
  A 0.42 0.24 29.5 0 0 456.12 476.93
  L 455.09 475.49"
/>
<path stroke="#d8a21c" vector-effect="non-scaling-stroke" d="
  M 842.74 536.82
  L 708.01 507.98"
/>
<path stroke="#e9ad20" vector-effect="non-scaling-stroke" d="
  M 708.01 507.98
  L 561.00 475.73"
/>
<path stroke="#e9ad20" vector-effect="non-scaling-stroke" d="
  M 535.85 663.97
  Q 535.95 664.01 535.95 664.25
  Q 535.95 665.60 534.09 665.97"
/>
</g>
<path fill="#ffd200" d="
  M 626.04 1.64
  C 623.31 2.81 623.90 4.69 623.90 7.50
  Q 624.05 99.22 624.31 190.94
  Q 624.68 191.36 624.43 192.30
  L 376.04 279.15
  Q 375.44 278.96 375.40 278.44
  L 621.96 2.37
  Q 622.55 0.36 626.04 1.64
  Z"
/>
<path fill="#fff797" d="
  M 621.96 2.37
  L 375.40 278.44
  Q 373.73 279.88 373.44 278.77
  Q 374.05 278.03 374.26 277.05
  Q 392.94 188.54 411.52 100.00
  Q 411.61 99.54 410.95 98.01
  Q 511.85 51.44 612.81 5.06
  Q 617.37 2.97 621.96 2.37
  Z"
/>
<path fill="#ffe14f" d="
  M 626.04 1.64
  L 893.10 221.73
  L 786.42 252.51
  Q 786.37 251.83 784.24 251.37
  L 624.43 192.30
  Q 624.68 191.36 624.31 190.94
  Q 624.05 99.22 623.90 7.50
  C 623.90 4.69 623.31 2.81 626.04 1.64
  Z"
/>
<path fill="#ffe14f" d="
  M 410.95 98.01
  Q 411.61 99.54 411.52 100.00
  Q 392.94 188.54 374.26 277.05
  Q 374.05 278.03 373.44 278.77
  Q 373.32 278.75 373.21 278.72
  L 336.68 135.55
  Q 336.61 135.25 336.31 135.33
  Q 335.96 135.42 335.87 135.24
  Q 336.00 132.55 337.56 131.81
  Q 368.52 117.16 410.95 98.01
  Z"
/>
<path fill="#fbb040" d="
  M 373.21 278.72
  Q 373.57 280.49 373.23 280.61
  L 282.47 459.82
  A 0.97 0.97 0.0 0 1 281.74 460.34
  Q 281.31 460.40 281.20 460.26
  L 335.87 135.24
  Q 335.96 135.42 336.31 135.33
  Q 336.61 135.25 336.68 135.55
  L 373.21 278.72
  Z"
/>
<path fill="#fff797" d="
  M 624.43 192.30
  L 784.24 251.37
  Q 784.32 252.42 781.81 252.58
  Q 595.81 265.08 409.81 277.52
  Q 393.33 278.62 376.87 279.91
  Q 376.52 279.94 376.28 279.80
  Q 375.82 279.52 376.04 279.15
  L 624.43 192.30
  Z"
/>
<path fill="#f6a01a" d="
  M 893.10 221.73
  L 843.01 535.07
  Q 841.68 534.56 842.01 532.76
  C 842.42 530.48 841.22 528.62 840.92 527.11
  Q 814.78 394.50 788.65 261.90
  C 788.05 258.84 787.71 255.99 786.42 253.21
  Q 786.42 252.86 786.42 252.51
  L 893.10 221.73
  Z"
/>
<path fill="#ffea53" d="
  M 784.24 251.37
  Q 786.37 251.83 786.42 252.51
  Q 786.42 252.86 786.42 253.21
  L 561.00 475.73
  Q 560.54 475.68 560.24 475.87
  Q 554.87 470.48 549.69 465.06
  Q 464.83 376.17 379.93 287.32
  Q 376.70 283.94 374.43 282.29
  L 373.23 280.61
  Q 373.57 280.49 373.21 278.72
  Q 373.32 278.75 373.44 278.77
  Q 373.73 279.88 375.40 278.44
  Q 375.44 278.96 376.04 279.15
  Q 375.82 279.52 376.28 279.80
  Q 376.52 279.94 376.87 279.91
  Q 393.33 278.62 409.81 277.52
  Q 595.81 265.08 781.81 252.58
  Q 784.32 252.42 784.24 251.37
  Z"
/>
<path fill="#fdbb30" d="
  M 786.42 253.21
  C 787.71 255.99 788.05 258.84 788.65 261.90
  Q 814.78 394.50 840.92 527.11
  C 841.22 528.62 842.42 530.48 842.01 532.76
  Q 841.68 534.56 843.01 535.07
  L 842.74 536.82
  L 708.01 507.98
  L 561.00 475.73
  L 786.42 253.21
  Z"
/>
<path fill="#c88a12" d="
  M 373.23 280.61
  L 374.43 282.29
  L 455.09 475.49
  Q 454.62 475.83 453.50 475.76
  Q 368.37 469.88 282.54 463.98
  A 0.57 0.57 0.0 0 0 282.04 464.89
  Q 282.15 465.04 281.91 465.56
  Q 279.74 464.19 281.20 460.26
  Q 281.31 460.40 281.74 460.34
  A 0.97 0.97 0.0 0 0 282.47 459.82
  L 373.23 280.61
  Z"
/>
<path fill="#ffd200" d="
  M 374.43 282.29
  Q 376.70 283.94 379.93 287.32
  Q 464.83 376.17 549.69 465.06
  Q 554.87 470.48 560.24 475.87
  L 535.85 663.97
  Q 534.73 664.58 534.49 664.01
  Q 495.37 570.50 456.18 477.03
  A 0.42 0.24 29.5 0 0 456.12 476.93
  L 455.09 475.49
  L 374.43 282.29
  Z"
/>
<path fill="#fdbb30" d="
  M 455.09 475.49
  L 456.12 476.93
  A 0.42 0.24 29.5 0 1 456.18 477.03
  Q 495.37 570.50 534.49 664.01
  Q 534.73 664.58 535.85 663.97
  Q 535.95 664.01 535.95 664.25
  Q 535.95 665.60 534.09 665.97
  L 281.91 465.56
  Q 282.15 465.04 282.04 464.89
  A 0.57 0.57 0.0 0 1 282.54 463.98
  Q 368.37 469.88 453.50 475.76
  Q 454.62 475.83 455.09 475.49
  Z"
/>
<path fill="#d59f0f" d="
  M 560.24 475.87
  Q 560.54 475.68 561.00 475.73
  L 708.01 507.98
  L 707.73 508.60
  Q 707.52 509.05 707.16 509.37
  Q 622.62 586.52 538.14 663.74
  C 537.32 664.49 536.36 664.43 536.26 666.00
  Q 535.78 666.40 534.09 665.97
  Q 535.95 665.60 535.95 664.25
  Q 535.95 664.01 535.85 663.97
  L 560.24 475.87
  Z"
/>
<path fill="#b38808" d="
  M 708.01 507.98
  L 842.74 536.82
  Q 842.76 537.35 842.67 537.39
  Q 690.59 601.45 538.49 665.47
  Q 537.66 665.81 536.26 666.00
  C 536.36 664.43 537.32 664.49 538.14 663.74
  Q 622.62 586.52 707.16 509.37
  Q 707.52 509.05 707.73 508.60
  L 708.01 507.98
  Z"
/>
</svg>
