<?xml version="1.0" encoding="UTF-8" standalone="no"?>
<svg
   width="3325.4954"
   height="3757.3413"
   viewBox="0 0 1662.7477 1878.6707"
   version="1.1"
   id="svg1"
   sodipodi:docname="Regular_hexagon.svg"
   xml:space="preserve"
   xmlns:inkscape="http://www.inkscape.org/namespaces/inkscape"
   xmlns:sodipodi="http://sodipodi.sourceforge.net/DTD/sodipodi-0.dtd"
   xmlns="http://www.w3.org/2000/svg"
   xmlns:svg="http://www.w3.org/2000/svg"><defs
     id="defs1" /><sodipodi:namedview
     id="namedview1"
     pagecolor="#505050"
     bordercolor="#eeeeee"
     borderopacity="1"
     inkscape:showpageshadow="0"
     inkscape:pageopacity="0"
     inkscape:pagecheckerboard="0"
     inkscape:deskcolor="#d1d1d1"
     showgrid="false"><inkscape:grid
       id="grid87"
       units="px"
       originx="1419.7581"
       originy="-2380.041"
       spacingx="0.5"
       spacingy="0.5"
       empcolor="#0099e5"
       empopacity="0.30196078"
       color="#0099e5"
       opacity="0.14901961"
       empspacing="5"
       dotted="false"
       gridanglex="30"
       gridanglez="30"
       visible="false" /></sodipodi:namedview><g
     id="g120"
     transform="matrix(10.23074,0,0,10.23074,2974.4059,-6289.4654)"><path
       style="fill:#ef9b0f;fill-opacity:1;fill-rule:evenodd;stroke:#000000;stroke-width:0;stroke-dasharray:none;stroke-opacity:1"
       d="m -251.34483,776.18202 c -19.7441,-11.41685 -36.55747,-21.19553 -37.36305,-21.73042 -1.4232,-0.94498 -1.10931,-1.58912 11.08048,-22.73902 6.89985,-11.97157 12.79864,-21.51265 13.10842,-21.20239 0.30978,0.31026 11.58816,19.65599 25.06306,42.99052 13.4749,23.33451 24.64692,42.66506 24.82669,42.95671 0.17978,0.2917 0.0695,0.5196 -0.24518,0.5064 -0.31464,-0.013 -16.72632,-9.36495 -36.47042,-20.7818 z"
       id="path114-8"
       inkscape:export-filename="SLX-shards.png"
       inkscape:export-xdpi="96"
       inkscape:export-ydpi="96" /><path
       style="fill:#ef8e0f;fill-opacity:1;fill-rule:evenodd;stroke:#000000;stroke-width:0;stroke-dasharray:none;stroke-opacity:1"
       d="m -290.73184,706.51346 c -0.0119,-22.73172 0.24625,-41.0281 0.57351,-40.65864 0.32725,0.36946 5.73787,9.61537 12.02359,20.54644 l 11.42857,19.87469 -11.1957,19.36974 c -6.15763,10.65335 -11.55857,20.00613 -12.00209,20.78395 -0.61088,1.07135 -0.81159,-8.60582 -0.82788,-39.91618 z"
       id="path115-1" /><path
       style="fill:#ffba00;fill-opacity:1;fill-rule:evenodd;stroke:#000000;stroke-width:0;stroke-dasharray:none;stroke-opacity:1"
       d="m -277.57276,680.93056 c -6.94585,-12.04994 -12.51432,-22.02069 -12.37437,-22.15724 1.16204,-1.13378 74.31018,-42.8775 74.60983,-42.57785 0.31729,0.31728 -47.75421,84.52737 -49.18762,86.16525 -0.23047,0.26335 -6.10199,-9.38022 -13.04784,-21.43016 z"
       id="path116-3" /><path
       style="fill:#ffd800;fill-opacity:1;fill-rule:evenodd;stroke:#000000;stroke-width:0;stroke-dasharray:none;stroke-opacity:1"
       d="m -236.35994,752.32582 -26.57031,-46.05527 26.12623,-45.32783 c 14.36942,-24.93031 26.48516,-45.70092 26.92387,-46.15691 0.59901,-0.6226 7.40086,10.63374 27.31414,45.20203 14.58408,25.3171 26.44369,46.27329 26.3547,46.56931 -0.36847,1.22568 -52.87579,91.84397 -53.21195,91.83437 -0.2015,-0.005 -12.323,-20.7353 -26.93668,-46.0657 z"
       id="path117-1" /><path
       style="fill:#ffc400;fill-opacity:1;fill-rule:evenodd;stroke:#000000;stroke-width:0;stroke-dasharray:none;stroke-opacity:1"
       d="m -202.85196,794.11262 c 1.02042,-1.71115 12.43346,-21.4411 25.36232,-43.84435 l 23.507,-40.73315 12.64149,21.88432 c 6.95282,12.03638 12.37444,22.14525 12.04804,22.46415 -0.75215,0.73489 -72.71592,42.30488 -74.26511,42.89933 -0.86864,0.33335 -0.69629,-0.3183 0.70626,-2.6703 z"
       id="path118-1" /><path
       style="fill:#ffed17;fill-opacity:1;fill-rule:evenodd;stroke:#000000;stroke-width:0;stroke-dasharray:none;stroke-opacity:1"
       d="m -139.91059,727.34933 c -6.29103,-10.91787 -11.5413,-20.21006 -11.66726,-20.64929 -0.12596,-0.43923 5.02125,-9.93525 11.43824,-21.10228 l 11.66726,-20.30368 0.18746,20.59202 c 0.10311,11.3256 0.10311,29.75443 0,40.95296 l -0.18746,20.36095 z"
       id="path119-0" /><path
       style="fill:#fffa35;fill-opacity:1;fill-rule:evenodd;stroke:#000000;stroke-width:0;stroke-dasharray:none;stroke-opacity:1"
       d="m -179.20635,659.26295 c -13.85211,-23.99349 -25.10209,-43.7081 -24.99995,-43.81024 0.17589,-0.17588 74.59177,42.62491 75.24388,43.27702 0.2419,0.24189 -18.42364,33.24057 -23.89327,42.24075 l -1.16501,1.91699 z"
       id="path120-3" /></g></svg>
