<?xml version="1.0" encoding="UTF-8" standalone="no"?>
<!-- Created with Inkscape (http://www.inkscape.org/) -->

<svg
   width="5210.0967mm"
   height="2660.8647mm"
   viewBox="0 0 5210.0967 2660.8647"
   version="1.1"
   id="svg2930"
   xmlns:inkscape="http://www.inkscape.org/namespaces/inkscape"
   xmlns:sodipodi="http://sodipodi.sourceforge.net/DTD/sodipodi-0.dtd"
   xmlns="http://www.w3.org/2000/svg"
   xmlns:svg="http://www.w3.org/2000/svg">
  <sodipodi:namedview
     id="namedview2932"
     pagecolor="#505050"
     bordercolor="#eeeeee"
     borderopacity="1"
     inkscape:showpageshadow="0"
     inkscape:pageopacity="0"
     inkscape:pagecheckerboard="0"
     inkscape:deskcolor="#505050"
     inkscape:document-units="mm"
     showgrid="false" />
  <defs
     id="defs2927" />
  <g
     inkscape:label="Layer 1"
     inkscape:groupmode="layer"
     id="layer1"
     transform="translate(1318.4616,1147.1855)">
    <g
       id="g462"
       transform="matrix(70.914629,0,0,-70.914629,-1308.0022,-719.98264)">
      <path
         d="M 0,0 5.311,-16.007 H 67.864 L 73.175,0 Z"
         style="fill:none;stroke:#000000;stroke-width:0.295;stroke-linecap:round;stroke-linejoin:round;stroke-miterlimit:10;stroke-dasharray:none;stroke-opacity:1"
         id="path464" />
    </g>
    <g
       id="g466"
       transform="matrix(70.914629,0,0,-70.914629,1977.0612,629.62202)">
      <path
         d="M 0,0 -0.59,0.664 -1.254,1.18 -2.065,1.549 -2.951,1.623"
         style="fill:none;stroke:#000000;stroke-width:0.295;stroke-linecap:round;stroke-linejoin:bevel;stroke-miterlimit:10;stroke-dasharray:none;stroke-opacity:1"
         id="path468" />
    </g>
    <g
       id="g470"
       transform="matrix(70.914629,0,0,-70.914629,1767.8276,514.54175)">
      <path
         d="M 0,0 H -13.573"
         style="fill:none;stroke:#000000;stroke-width:0.295;stroke-linecap:round;stroke-linejoin:round;stroke-miterlimit:10;stroke-dasharray:none;stroke-opacity:1"
         id="path472" />
    </g>
    <g
       id="g474"
       transform="matrix(70.914629,0,0,-70.914629,805.31756,514.54175)">
      <path
         d="M 0,0 -0.885,-0.074 -1.697,-0.443 -2.36,-0.959 -2.951,-1.623"
         style="fill:none;stroke:#000000;stroke-width:0.295;stroke-linecap:round;stroke-linejoin:bevel;stroke-miterlimit:10;stroke-dasharray:none;stroke-opacity:1"
         id="path476" />
    </g>
    <g
       id="g478"
       transform="matrix(70.914629,0,0,-70.914629,596.07688,629.62202)">
      <path
         d="m 0,0 -7.745,-12.319 h -8.704 L -21.465,2.729 H 40.866 L 35.85,-12.319 H 27.145 L 19.474,0"
         style="fill:none;stroke:#000000;stroke-width:0.295;stroke-linecap:round;stroke-linejoin:round;stroke-miterlimit:10;stroke-dasharray:none;stroke-opacity:1"
         id="path480" />
    </g>
    <g
       id="g482"
       transform="matrix(70.914629,0,0,-70.914629,-1308.0022,-719.98264)">
      <path
         d="M 0,0 V 3.467"
         style="fill:none;stroke:#808080;stroke-width:0.231;stroke-linecap:round;stroke-linejoin:round;stroke-miterlimit:10;stroke-dasharray:none;stroke-opacity:1"
         id="path484" />
    </g>
    <g
       id="g486"
       transform="matrix(70.914629,0,0,-70.914629,-1308.0022,-955.38374)">
      <path
         d="M 0,0 H 0.812 V 0.074 Z"
         style="fill:#000000;fill-opacity:1;fill-rule:nonzero;stroke:none"
         id="path488" />
    </g>
    <g
       id="g490"
       transform="matrix(70.914629,0,0,-70.914629,-1308.0022,-955.38374)">
      <path
         d="M 0,0 0.812,-0.148 V 0 Z"
         style="fill:#000000;fill-opacity:1;fill-rule:nonzero;stroke:none"
         id="path492" />
    </g>
    <g
       id="g494"
       transform="matrix(70.914629,0,0,-70.914629,-1308.0022,-955.37665)">
      <path
         d="M 0,0 0.811,0.074 V -0.148 Z"
         style="fill:none;stroke:#000000;stroke-width:0.231;stroke-linecap:round;stroke-linejoin:round;stroke-miterlimit:10;stroke-dasharray:none;stroke-opacity:1"
         id="path496" />
    </g>
    <g
       id="g498"
       transform="matrix(70.914629,0,0,-70.914629,3881.1474,-719.98264)">
      <path
         d="M 0,0 V 3.467"
         style="fill:none;stroke:#808080;stroke-width:0.231;stroke-linecap:round;stroke-linejoin:round;stroke-miterlimit:10;stroke-dasharray:none;stroke-opacity:1"
         id="path500" />
    </g>
    <g
       id="g502"
       transform="matrix(70.914629,0,0,-70.914629,3818.4019,-955.38374)">
      <path
         d="M 0,0 H 0.885 L 0,0.074 Z"
         style="fill:#000000;fill-opacity:1;fill-rule:nonzero;stroke:none"
         id="path504" />
    </g>
    <g
       id="g506"
       transform="matrix(70.914629,0,0,-70.914629,3818.4019,-955.38374)">
      <path
         d="M 0,0 V -0.148 L 0.885,0 Z"
         style="fill:#000000;fill-opacity:1;fill-rule:nonzero;stroke:none"
         id="path508" />
    </g>
    <g
       id="g510"
       transform="matrix(70.914629,0,0,-70.914629,3881.1474,-955.37665)">
      <path
         d="M 0,0 -0.885,0.074 V -0.148 Z"
         style="fill:none;stroke:#000000;stroke-width:0.231;stroke-linecap:round;stroke-linejoin:round;stroke-miterlimit:10;stroke-dasharray:none;stroke-opacity:1"
         id="path512" />
    </g>
    <g
       id="g514"
       transform="matrix(70.914629,0,0,-70.914629,-1250.462,-955.37665)">
      <path
         d="M 0,0 H 71.478"
         style="fill:none;stroke:#000000;stroke-width:0.231;stroke-linecap:round;stroke-linejoin:round;stroke-miterlimit:10;stroke-dasharray:none;stroke-opacity:1"
         id="path516" />
    </g>
    <text
       xml:space="preserve"
       style="font-variant:normal;font-weight:normal;font-stretch:normal;font-size:141.241px;font-family:'Louis George Caf';-inkscape-font-specification:'CIDFont +F1';writing-mode:lr-tb;fill:#000000;fill-opacity:1;fill-rule:nonzero;stroke:none;stroke-width:70.9147"
       id="text520"
       x="1072.3466"
       y="-1044.7858"><tspan
         x="1072.3466 1140.1421 1186.7515 1281.3827 1401.4374"
         y="-1044.7858"
         sodipodi:role="line"
         id="tspan518"
         style="stroke-width:70.9147">210mm</tspan></text>
    <g
       id="g538"
       transform="matrix(70.914629,0,0,-70.914629,-491.96625,-719.98264)">
      <path
         d="M 0,0 -0.074,0.295 -0.369,0.516 H -0.664 L -0.959,0.295 -1.033,0"
         style="fill:none;stroke:#000000;stroke-width:0.231;stroke-linecap:round;stroke-linejoin:round;stroke-miterlimit:10;stroke-dasharray:none;stroke-opacity:1"
         id="path540" />
    </g>
    <g
       id="g542"
       transform="matrix(70.914629,0,0,-70.914629,-350.73269,-719.98264)">
      <path
         d="M 0,0 -0.074,0.295 -0.369,0.516 H -0.664 L -0.959,0.295 -1.033,0"
         style="fill:none;stroke:#000000;stroke-width:0.231;stroke-linecap:round;stroke-linejoin:round;stroke-miterlimit:10;stroke-dasharray:none;stroke-opacity:1"
         id="path544" />
    </g>
  </g>
</svg>
