<?xml version="1.0" encoding="UTF-8" standalone="no"?>
<!-- Created with Inkscape (http://www.inkscape.org/) -->

<svg
   width="991.42493mm"
   height="358.47131mm"
   viewBox="0 0 991.42493 358.47131"
   version="1.1"
   id="svg2930"
   xmlns:inkscape="http://www.inkscape.org/namespaces/inkscape"
   xmlns:sodipodi="http://sodipodi.sourceforge.net/DTD/sodipodi-0.dtd"
   xmlns="http://www.w3.org/2000/svg"
   xmlns:svg="http://www.w3.org/2000/svg">
  <sodipodi:namedview
     id="namedview2932"
     pagecolor="#505050"
     bordercolor="#eeeeee"
     borderopacity="1"
     inkscape:showpageshadow="0"
     inkscape:pageopacity="0"
     inkscape:pagecheckerboard="0"
     inkscape:deskcolor="#505050"
     inkscape:document-units="mm"
     showgrid="false" />
  <defs
     id="defs2927" />
  <g
     inkscape:label="Layer 1"
     inkscape:groupmode="layer"
     id="layer1"
     transform="translate(266.64438,-136.41104)">
    <g
       id="g868"
       transform="matrix(12.314707,0,0,-12.314707,-265.35148,417.53364)">
      <path
         d="M 0,0 8.983,10.769 H 65.559 L 74.436,0 Z"
         style="fill:none;stroke:#000000;stroke-width:0.21;stroke-linecap:round;stroke-linejoin:round;stroke-miterlimit:10;stroke-dasharray:none;stroke-opacity:1"
         id="path870" />
    </g>
    <g
       id="g872"
       transform="matrix(12.314707,0,0,-12.314707,-152.79013,282.33047)">
      <path
         d="M 0,0 9.508,11.399 H 46.805 L 56.261,0 Z"
         style="fill:none;stroke:#000000;stroke-width:0.21;stroke-linecap:round;stroke-linejoin:round;stroke-miterlimit:10;stroke-dasharray:none;stroke-opacity:1"
         id="path874" />
    </g>
    <g
       id="g876"
       transform="matrix(12.314707,0,0,-12.314707,-125.62019,417.53364)">
      <path
         d="M 0,0 H 3.257"
         style="fill:none;stroke:#000000;stroke-width:0.164;stroke-linecap:round;stroke-linejoin:round;stroke-miterlimit:10;stroke-dasharray:none;stroke-opacity:1"
         id="path878" />
    </g>
    <g
       id="g880"
       transform="matrix(12.314707,0,0,-12.314707,473.41273,417.53364)">
      <path
         d="M 0,0 V 0.841 L 0.053,1.681 0.21,2.469 0.368,3.204 0.63,3.835 0.893,4.36 1.208,4.675 1.366,4.78 1.523,4.833 H 1.681 L 1.839,4.78 1.996,4.675 2.154,4.518 2.417,4.097 2.679,3.52 2.942,2.784 3.099,1.944 3.204,0.998 V 0"
         style="fill:none;stroke:#000000;stroke-width:0.164;stroke-linecap:round;stroke-linejoin:round;stroke-miterlimit:10;stroke-dasharray:none;stroke-opacity:1"
         id="path882" />
    </g>
    <g
       id="g884"
       transform="matrix(12.314707,0,0,-12.314707,-86.805457,417.53364)">
      <path
         d="M 0,0 V 0.841 L -0.053,1.681 -0.21,2.469 -0.42,3.204 -0.63,3.835 -0.946,4.36 -1.208,4.675 -1.366,4.78 -1.523,4.833 H -1.681 L -1.839,4.78 -1.996,4.675 -2.154,4.518 -2.469,4.097 -2.732,3.52 -2.942,2.784 -3.099,1.944 -3.204,0.998 -3.257,0"
         style="fill:none;stroke:#000000;stroke-width:0.164;stroke-linecap:round;stroke-linejoin:round;stroke-miterlimit:10;stroke-dasharray:none;stroke-opacity:1"
         id="path886" />
    </g>
    <g
       id="g888"
       transform="matrix(12.314707,0,0,-12.314707,-265.35148,417.53364)">
      <path
         d="M 0,0 V -6.199"
         style="fill:none;stroke:#808080;stroke-width:0.164;stroke-linecap:round;stroke-linejoin:round;stroke-miterlimit:10;stroke-dasharray:none;stroke-opacity:1"
         id="path890" />
    </g>
    <g
       id="g892"
       transform="matrix(12.314707,0,0,-12.314707,-265.3564,491.92555)">
      <path
         d="M 0,0 H 0.946 V 0.158 Z"
         style="fill:#000000;fill-opacity:1;fill-rule:nonzero;stroke:none"
         id="path894" />
    </g>
    <g
       id="g896"
       transform="matrix(12.314707,0,0,-12.314707,-265.3564,491.92555)">
      <path
         d="M 0,0 0.946,-0.105 V 0 Z"
         style="fill:#000000;fill-opacity:1;fill-rule:nonzero;stroke:none"
         id="path898" />
    </g>
    <g
       id="g900"
       transform="matrix(12.314707,0,0,-12.314707,-265.35148,491.92802)">
      <path
         d="M 0,0 0.946,0.158 V -0.105 Z"
         style="fill:none;stroke:#000000;stroke-width:0.164;stroke-linecap:round;stroke-linejoin:round;stroke-miterlimit:10;stroke-dasharray:none;stroke-opacity:1"
         id="path902" />
    </g>
    <g
       id="g904"
       transform="matrix(12.314707,0,0,-12.314707,651.31101,417.53364)">
      <path
         d="M 0,0 V -6.199"
         style="fill:none;stroke:#808080;stroke-width:0.164;stroke-linecap:round;stroke-linejoin:round;stroke-miterlimit:10;stroke-dasharray:none;stroke-opacity:1"
         id="path906" />
    </g>
    <g
       id="g908"
       transform="matrix(12.314707,0,0,-12.314707,640.31027,491.92555)">
      <path
         d="M 0,0 H 0.894 L 0,0.158 Z"
         style="fill:#000000;fill-opacity:1;fill-rule:nonzero;stroke:none"
         id="path910" />
    </g>
    <g
       id="g912"
       transform="matrix(12.314707,0,0,-12.314707,640.31027,491.92555)">
      <path
         d="M 0,0 V -0.105 L 0.894,0 Z"
         style="fill:#000000;fill-opacity:1;fill-rule:nonzero;stroke:none"
         id="path914" />
    </g>
    <g
       id="g916"
       transform="matrix(12.314707,0,0,-12.314707,651.31101,491.92802)">
      <path
         d="M 0,0 -0.893,0.158 V -0.105 Z"
         style="fill:none;stroke:#000000;stroke-width:0.164;stroke-linecap:round;stroke-linejoin:round;stroke-miterlimit:10;stroke-dasharray:none;stroke-opacity:1"
         id="path918" />
    </g>
    <g
       id="g920"
       transform="matrix(12.314707,0,0,-12.314707,-253.70669,491.92802)">
      <path
         d="M 0,0 H 72.598"
         style="fill:none;stroke:#000000;stroke-width:0.164;stroke-linecap:round;stroke-linejoin:round;stroke-miterlimit:10;stroke-dasharray:none;stroke-opacity:1"
         id="path922" />
    </g>
    <text
       xml:space="preserve"
       style="font-variant:normal;font-weight:normal;font-stretch:normal;font-size:17.4672px;font-family:'Louis George Caf';-inkscape-font-specification:'CIDFont +F1';writing-mode:lr-tb;fill:#000000;fill-opacity:1;fill-rule:nonzero;stroke:none;stroke-width:12.3147"
       id="text926"
       x="158.45058"
       y="484.75714"><tspan
         x="158.45058 167.53348 179.23651 190.76483 205.61195"
         y="484.75714"
         sodipodi:role="line"
         id="tspan924"
         style="stroke-width:12.3147">300mm</tspan></text>
    <g
       id="g928"
       transform="matrix(12.314707,0,0,-12.314707,101.44332,141.95265)">
      <path
         d="m 0,0 -0.053,0.21 -0.21,0.158 h -0.21 L -0.683,0.21 -0.735,0"
         style="fill:none;stroke:#000000;stroke-width:0.164;stroke-linecap:round;stroke-linejoin:round;stroke-miterlimit:10;stroke-dasharray:none;stroke-opacity:1"
         id="path930" />
    </g>
    <g
       id="g932"
       transform="matrix(12.314707,0,0,-12.314707,158.37174,141.95265)">
      <path
         d="m 0,0 -0.053,0.21 -0.21,0.158 h -0.21 L -0.683,0.21 -0.735,0"
         style="fill:none;stroke:#000000;stroke-width:0.164;stroke-linecap:round;stroke-linejoin:round;stroke-miterlimit:10;stroke-dasharray:none;stroke-opacity:1"
         id="path934" />
    </g>
    <g
       id="g936"
       transform="matrix(12.314707,0,0,-12.314707,237.94077,141.95265)">
      <path
         d="m 0,0 -0.053,0.21 -0.21,0.158 h -0.21 L -0.683,0.21 -0.735,0"
         style="fill:none;stroke:#000000;stroke-width:0.164;stroke-linecap:round;stroke-linejoin:round;stroke-miterlimit:10;stroke-dasharray:none;stroke-opacity:1"
         id="path938" />
    </g>
    <g
       id="g940"
       transform="matrix(12.314707,0,0,-12.314707,294.86795,141.95265)">
      <path
         d="m 0,0 -0.052,0.21 -0.211,0.158 h -0.21 L -0.683,0.21 -0.735,0"
         style="fill:none;stroke:#000000;stroke-width:0.164;stroke-linecap:round;stroke-linejoin:round;stroke-miterlimit:10;stroke-dasharray:none;stroke-opacity:1"
         id="path942" />
    </g>
    <g
       id="g944"
       transform="matrix(12.314707,0,0,-12.314707,423.60221,141.95265)">
      <path
         d="M 0,0 H 24.374"
         style="fill:none;stroke:#808080;stroke-width:0.164;stroke-linecap:round;stroke-linejoin:round;stroke-miterlimit:10;stroke-dasharray:none;stroke-opacity:1"
         id="path946" />
    </g>
    <g
       id="g948"
       transform="matrix(12.314707,0,0,-12.314707,720.53074,152.95584)">
      <path
         d="M 0,0 H 0.21 L 0.105,0.894 Z"
         style="fill:#000000;fill-opacity:1;fill-rule:nonzero;stroke:none"
         id="path950" />
    </g>
    <g
       id="g952"
       transform="matrix(12.314707,0,0,-12.314707,721.82501,141.95265)">
      <path
         d="m 0,0 -0.105,-0.893 h 0.21 z"
         style="fill:none;stroke:#000000;stroke-width:0.164;stroke-linecap:round;stroke-linejoin:round;stroke-miterlimit:10;stroke-dasharray:none;stroke-opacity:1"
         id="path954" />
    </g>
    <g
       id="g956"
       transform="matrix(12.314707,0,0,-12.314707,651.31101,417.53364)">
      <path
         d="M 0,0 H 5.884"
         style="fill:none;stroke:#808080;stroke-width:0.164;stroke-linecap:round;stroke-linejoin:round;stroke-miterlimit:10;stroke-dasharray:none;stroke-opacity:1"
         id="path958" />
    </g>
    <g
       id="g960"
       transform="matrix(12.314707,0,0,-12.314707,721.17357,406.54031)">
      <path
         d="M 0,0 H 0.158 Z"
         style="fill:#000000;fill-opacity:1;fill-rule:nonzero;stroke:none"
         id="path962" />
    </g>
    <g
       id="g964"
       transform="matrix(12.314707,0,0,-12.314707,721.17357,406.54031)">
      <path
         d="M 0,0 0.053,-0.893 0.158,0 Z"
         style="fill:#000000;fill-opacity:1;fill-rule:nonzero;stroke:none"
         id="path966" />
    </g>
    <g
       id="g968"
       transform="matrix(12.314707,0,0,-12.314707,721.82501,417.53364)">
      <path
         d="M 0,0 -0.053,0.893 H 0.105 Z"
         style="fill:none;stroke:#000000;stroke-width:0.164;stroke-linecap:round;stroke-linejoin:round;stroke-miterlimit:10;stroke-dasharray:none;stroke-opacity:1"
         id="path970" />
    </g>
    <g
       id="g972"
       transform="matrix(12.314707,0,0,-12.314707,721.82501,152.94969)">
      <path
         d="M 0,0 V -20.592"
         style="fill:none;stroke:#000000;stroke-width:0.164;stroke-linecap:round;stroke-linejoin:round;stroke-miterlimit:10;stroke-dasharray:none;stroke-opacity:1"
         id="path974" />
    </g>
    <text
       xml:space="preserve"
       transform="rotate(-90)"
       style="font-variant:normal;font-weight:normal;font-stretch:normal;font-size:17.466px;font-family:'Louis George Caf';-inkscape-font-specification:'CIDFont +F1';writing-mode:lr-tb;fill:#000000;fill-opacity:1;fill-rule:nonzero;stroke:none;stroke-width:12.3147"
       id="text978"
       x="-302.38498"
       y="716.64911"><tspan
         x="-302.38498 -292.57785 -286.81406 -271.96802"
         y="716.64911"
         sodipodi:role="line"
         id="tspan976"
         style="stroke-width:12.3147">91mm</tspan></text>
  </g>
</svg>
